<svg xmlns="http://www.w3.org/2000/svg" viewBox="0 0 109.16 36.44"><defs><style>.cls-1{fill:#263746;}</style></defs><title>Asset 5</title><g id="Layer_2" data-name="Layer 2"><g id="Layer_1-2" data-name="Layer 1"><g id="_Group_" data-name="&lt;Group&gt;"><path id="_Path_" data-name="&lt;Path&gt;" class="cls-1" d="M23.41,15.68c-.44,2.35-1.29,2.21-2,2.21H17.89c-.93,0-1-.73-1-1.19V10.58h2.23a.8.8,0,0,1,.91.74l.21,1.48h.4L20.44,9.4H20a.5.5,0,0,1-.58.42H16.93V4.88c0-1.06.64-1.07,1.15-1.07h2.16c.67,0,1,.2,1.12,1s.32,2.43.32,2.43h.49s-.23-2.09-.28-3,.63-.93.63-.93v-.4h-9.7v.48h1.56c.56,0,.85.26.85.87V17c0,1.54-1,1.29-1,1.29v.49h9l.59-3.1h-.44Z"/><path id="_Path_2" data-name="&lt;Path&gt;" class="cls-1" d="M57.18,15.68c-.44,2.35-1.29,2.21-2,2.21H51.65c-.93,0-1-.73-1-1.19V10.58h2.23a.8.8,0,0,1,.91.74l.21,1.48h.4L54.2,9.4h-.45a.5.5,0,0,1-.58.42H50.69V4.88c0-1.06.64-1.07,1.15-1.07H54c.67,0,1,.2,1.12,1s.32,2.43.32,2.43h.49s-.23-2.09-.28-3,.63-.93.63-.93v-.4h-9.7v.48h1.56c.55,0,.85.26.85.87V17c0,1.54-1,1.29-1,1.29v.49h9l.59-3.1h-.44Z"/><path id="_Path_3" data-name="&lt;Path&gt;" class="cls-1" d="M84.81,15.68c-.44,2.35-1.29,2.21-2,2.21H79.28c-.93,0-1-.73-1-1.19V10.58h2.23a.8.8,0,0,1,.91.74l.21,1.48h.4L81.83,9.4h-.45a.5.5,0,0,1-.58.42H78.32V4.88c0-1.06.64-1.07,1.15-1.07h2.16c.67,0,1,.2,1.12,1s.32,2.43.32,2.43h.49s-.23-2.09-.28-3,.63-.93.63-.93v-.4H74.2v.48h1.56c.55,0,.85.26.85.87V17c0,1.54-1,1.29-1,1.29v.49h9l.59-3.1h-.44Z"/><path id="_Path_4" data-name="&lt;Path&gt;" class="cls-1" d="M108.72,15.68c-.44,2.35-1.29,2.21-2,2.21H103.2c-.93,0-1-.73-1-1.19V10.58h2.23a.8.8,0,0,1,.91.74l.21,1.48h.4l-.25-3.39h-.45a.5.5,0,0,1-.58.42h-2.47V4.88c0-1.06.64-1.07,1.15-1.07h2.16c.67,0,1,.2,1.12,1s.32,2.43.32,2.43h.49s-.23-2.09-.28-3a.78.78,0,0,1,.63-.93v-.4h-9.7v.48h1.56c.56,0,.85.26.85.87V17c0,1.54-1,1.29-1,1.29v.49h9l.59-3.1h-.44Z"/><path id="_Path_5" data-name="&lt;Path&gt;" class="cls-1" d="M34.29,14.84h.52L34,18.79H25.76v-.45s1,.19,1-1.19V4.62c0-.6-.11-1.19-1.08-1.19H24.53V2.95h5v.47a.84.84,0,0,0-1,.94V16.1c0,.91,0,1.81,1.16,1.81h2.58a1.39,1.39,0,0,0,1.51-1.05Z"/><path id="_Path_6" data-name="&lt;Path&gt;" class="cls-1" d="M33.52,3.42V2.95h5.09v.5H37.3c-.5,0-1.29,0-.87,1.37s3.37,11.32,3.37,11.32S43.23,5.56,43.52,4.67s-.13-1.22-1-1.22H41.26V2.95h2.21c.55,0,.88-.06,1.19-1h.68L39.82,19.06h-.75L34.62,4.34C34.39,3.6,34.14,3.42,33.52,3.42Z"/><polygon id="_Path_7" data-name="&lt;Path&gt;" class="cls-1" points="28.74 25.68 27.62 32.78 26.5 25.68 24.96 25.68 26.99 36.35 28.25 36.35 30.28 25.68 28.74 25.68"/><polygon id="_Path_8" data-name="&lt;Path&gt;" class="cls-1" points="72.22 36.35 69.48 30.64 72 25.68 70.47 25.68 68.03 30.52 68.03 25.68 66.65 25.68 66.65 36.35 68.03 36.35 68.03 30.87 70.64 36.35 72.22 36.35"/><path id="_Compound_Path_" data-name="&lt;Compound Path&gt;" class="cls-1" d="M8.43,8.81A5.27,5.27,0,0,0,11,3.93C11-.06,7.63,0,5.81,0S0,.08,0,.08V.58s.54,0,1.51.06S2.7,1.44,2.7,2.2V17c0,1.48-1.2,1.29-1.2,1.29v.55c2.7-.2,2.1.17,5.46.17s5.23-2,5.23-5.37C12.19,9,8.43,8.81,8.43,8.81ZM4.49,1.64C4.49,1,5,.81,5.75.81A3.2,3.2,0,0,1,9.3,4.29c0,1.65-.39,4.44-3.17,4.44H4.49ZM7.18,18H5.59a1.08,1.08,0,0,1-1.1-1.17V9.63h2c1.07,0,3.78.4,3.78,4.13C10.3,14.93,10,18,7.18,18Z"/><path id="_Compound_Path_2" data-name="&lt;Compound Path&gt;" class="cls-1" d="M67.17,3H58.69v.3H60c.88,0,1.13.88,1.13,1.49V17.11c0,1.32-.9,1.13-.9,1.13v.67H66c6,0,7.61-4.59,7.61-7.85C73.62,5.14,70.13,3,67.17,3ZM65.05,18.19c-.72,0-2.17,0-2.17-1.46V4.9c0-.6.1-1.22,1.92-1.22S72,3.76,72,11.06C72,14.41,70.44,18.19,65.05,18.19Z"/><path id="_Compound_Path_3" data-name="&lt;Compound Path&gt;" class="cls-1" d="M98.33,20.17l-5.18-8.42c1.59-.5,3.14-1.91,3.14-4.88A3.52,3.52,0,0,0,92.59,3H85.94v.3h1.18a1.15,1.15,0,0,1,1.21,1.31V17.24c0,1.09-.9,1-.9,1v.63h5.09v-.6H91c-.75,0-1.15-.72-1.15-1.48V12H91.5c.73,1.2,3.8,6.12,4.81,7.71a7,7,0,0,0,3.21,2.54l.21-.38A5.31,5.31,0,0,1,98.33,20.17Zm-8.5-9V4.84H90c0-1.2.83-1.3,1.39-1.3,3,0,3.4,2.44,3.4,3.69,0,3.1-2,3.9-3.08,3.9Z"/><path id="_Compound_Path_4" data-name="&lt;Compound Path&gt;" class="cls-1" d="M41.23,25.45c-2.15,0-2.82,2.46-2.82,5.49s.66,5.49,2.82,5.49S44,34,44,30.94,43.38,25.45,41.23,25.45Zm0,9.76c-1,0-1.37-1.91-1.37-4.27s.32-4.27,1.37-4.27,1.37,1.91,1.37,4.27S42.27,35.21,41.23,35.21Z"/><path id="_Compound_Path_5" data-name="&lt;Compound Path&gt;" class="cls-1" d="M54.52,25.8H52.7V36.28h1.68c1.36,0,3.53-.7,3.53-5.39S55.3,25.8,54.52,25.8Zm-.32,9.28V26.87s2.32-.29,2.32,4S54.8,35.08,54.2,35.08Z"/><path id="_Compound_Path_6" data-name="&lt;Compound Path&gt;" class="cls-1" d="M83.86,25.8H82.41L80.08,36.28h1.41l.41-2.1h2.48l.41,2.1H86.2ZM82.1,33l1-5.73,1,5.73Z"/></g></g></g></svg>