<svg xmlns="http://www.w3.org/2000/svg" viewBox="0 0 90.45 35.07"><defs><style>.cls-1{fill:#263746;}</style></defs><title>Asset 6</title><g id="Layer_2" data-name="Layer 2"><g id="Layer_1-2" data-name="Layer 1"><path class="cls-1" d="M90,13.7a1.54,1.54,0,1,0,.45,1.09A1.49,1.49,0,0,0,90,13.7Zm-.19,2a1.27,1.27,0,1,1,.37-.9A1.23,1.23,0,0,1,89.8,15.69Z"/><path class="cls-1" d="M89.52,15.05l0-.09a.26.26,0,0,0-.09-.12l-.09,0h-.09l.11,0a.42.42,0,0,0,.12-.08.36.36,0,0,0,.09-.13.64.64,0,0,0,0-.17.36.36,0,0,0,0-.18.45.45,0,0,0-.12-.16.48.48,0,0,0-.17-.09l-.15,0h-.87v1.73h.34v-.72h.33L89,15l.08,0a.14.14,0,0,1,0,.07l0,.1.06.48h.36l-.06-.5Zm-.32-.54a.22.22,0,0,1-.05.09.35.35,0,0,1-.12.07h-.44v-.5H89l.08,0a.2.2,0,0,1,.1.08.26.26,0,0,1,0,.16A.29.29,0,0,1,89.2,14.52Z"/><path class="cls-1" d="M78.64,15.58A19.37,19.37,0,0,0,81.53,14a23.49,23.49,0,0,0,3.31-2.44,21,21,0,0,0,2.37-2.45,8.14,8.14,0,0,0,1.39-2.48,5.51,5.51,0,0,0,.31-2.41,2,2,0,0,0-.68-1.37A2.79,2.79,0,0,0,87,2.3a5,5,0,0,0-2.21.11,7,7,0,0,0-2.11.94,11.1,11.1,0,0,0-2,1.81A19.64,19.64,0,0,0,78.5,8.22a34.39,34.39,0,0,0-1.92,3.72c-.53,1.21-1.16,2.7-1.92,4.55a27.44,27.44,0,0,1-1.84,3.74,18.6,18.6,0,0,1-1.74,2.5,10.61,10.61,0,0,1-1.61,1.52,5.53,5.53,0,0,1-1.65.89,2.25,2.25,0,0,1-1.48,0,2.33,2.33,0,0,1-.78-.53,2.24,2.24,0,0,1-.58-1,4.85,4.85,0,0,1-.17-1.34A6.64,6.64,0,0,1,65,20.89a7.65,7.65,0,0,1,.47-1.4,5,5,0,0,1,1-1.47,3.72,3.72,0,0,1,1.39-1c.53-.18.76-.16.85-.11s.16.12.15.14-.07.1-.35.24a1.62,1.62,0,0,0-.62.55,2.44,2.44,0,0,0-.36.85,2.18,2.18,0,0,0,0,1,1.7,1.7,0,0,0,.29.62,1.26,1.26,0,0,0,.58.45,1.9,1.9,0,0,0,1.3,0A2.81,2.81,0,0,0,70.89,20a3.6,3.6,0,0,0,.77-1.3,4.23,4.23,0,0,0,.21-1.51,2.45,2.45,0,0,0-.52-1.43,2.52,2.52,0,0,0-1.19-.88,4.44,4.44,0,0,0-1.38-.25,5.21,5.21,0,0,0-1.23.11,5.87,5.87,0,0,0-1.15.4,6.12,6.12,0,0,0-1.11.66,8.39,8.39,0,0,0-1,.94,9.89,9.89,0,0,0-1,1.21,14.56,14.56,0,0,0-.91,1.56,11,11,0,0,0-.79,2.1,10.09,10.09,0,0,0-.36,2.3A8.62,8.62,0,0,0,61.39,26,5.27,5.27,0,0,0,62,27.63h0l.09.15a3.81,3.81,0,0,0,.45.56,3,3,0,0,0,1.68.67,5.34,5.34,0,0,0,2-.23,7.08,7.08,0,0,0,2-1A13.3,13.3,0,0,0,70,26.26c.32-.33.82-.86,1.48-1.58l.78-.91-1.71,5h3.82l0-.06A37.2,37.2,0,0,1,76,24.52a14.81,14.81,0,0,1,1.08-1.9,12,12,0,0,1,1.09-1.35,10.81,10.81,0,0,1,1.13-1.06,2.57,2.57,0,0,1,1.11-.54.73.73,0,0,1,.56.15c.19.13.24.44.16.94a14.44,14.44,0,0,1-.5,2L80,24.88a14.58,14.58,0,0,0-.37,1.41,6.08,6.08,0,0,0-.12,1.13,2,2,0,0,0,.27,1,1.46,1.46,0,0,0,1.09.62h0a3.14,3.14,0,0,0,.53,0,4.72,4.72,0,0,0,3.11-1.23,12.42,12.42,0,0,0,1.62-1.8,16.17,16.17,0,0,0,1.55-2.67l0-.07-1-.63,0,.08c-.16.29-.35.63-.56,1a3.66,3.66,0,0,1-1.23,1.36.89.89,0,0,1-1,0c-.28-.21-.35-.63-.21-1.27,0-.18.15-.59.31-1.16l1.35-4.31A5.08,5.08,0,0,0,85.47,17a1.22,1.22,0,0,0-.55-1.11,2.08,2.08,0,0,0-1.47-.25,5.6,5.6,0,0,0-1.73.54,12.39,12.39,0,0,0-2.22,1.59,19.77,19.77,0,0,0-2.29,2.29l.62-2.1Zm.58-2.26L79.77,12h0a22.34,22.34,0,0,1,2-4,10.85,10.85,0,0,1,1.84-2.28,5.31,5.31,0,0,1,1.44-.87,1.7,1.7,0,0,1,.6-.13.84.84,0,0,1,.85,1A4.78,4.78,0,0,1,86.25,7a6.28,6.28,0,0,1-.94,1.56,13.43,13.43,0,0,1-1.76,1.85,29.2,29.2,0,0,1-3.18,2.31Z"/><path class="cls-1" d="M59.49,15.5a2.28,2.28,0,0,0,1.24-.75,3,3,0,0,0,.7-1.39,2.37,2.37,0,0,0-.08-1.43,1.51,1.51,0,0,0-.23-.35,1.34,1.34,0,0,0-.46-.36,2,2,0,0,0-.79-.16,2.34,2.34,0,0,0-1.48.52,6.18,6.18,0,0,0-1.52,2.11c-.52,1-1.13,2.14-1.8,3.3s-1.38,2.27-2.14,3.35a3.41,3.41,0,0,0-.7-.09,2.23,2.23,0,0,0-1.84,1,5.27,5.27,0,0,0-.76,3,3.36,3.36,0,0,1-.75.51,2.25,2.25,0,0,1-1.84.12,1.24,1.24,0,0,1-.64-.67,2.72,2.72,0,0,1-.27-.94,8.63,8.63,0,0,1,.05-1.69,14.19,14.19,0,0,1,.29-1.56A27.23,27.23,0,0,0,51,16.78a22.85,22.85,0,0,0,3.08-3.34,29.39,29.39,0,0,0,2-3.19,15.57,15.57,0,0,0,1.33-3.19,7.55,7.55,0,0,0,.31-2.95,1.81,1.81,0,0,0-1.1-1.69,3.1,3.1,0,0,0-1.9,0,8.15,8.15,0,0,0-2.29,1.17A13.56,13.56,0,0,0,49.89,6,35.63,35.63,0,0,0,47.08,10a41.4,41.4,0,0,0-2,3.73,56.71,56.71,0,0,0-2.55,6.53,2.25,2.25,0,0,1-1.13.42,1.71,1.71,0,0,1-.75-.07A5.62,5.62,0,0,0,41,19.48a4.85,4.85,0,0,0,0-1.56,2.07,2.07,0,0,0-.22-.71,1,1,0,0,0-.42-.44,1.38,1.38,0,0,0-.77-.11,4.37,4.37,0,0,0-1.06-1.23A3.77,3.77,0,0,0,37,14.74a4.1,4.1,0,0,0-1.88,0,6.51,6.51,0,0,0-1.83.81,8.53,8.53,0,0,0-1.93,1.83,11,11,0,0,0-1.66,2.84,9.86,9.86,0,0,0-.59,3.82,2.92,2.92,0,0,1-1.12.8,2,2,0,0,1-1.17,0,1.9,1.9,0,0,1-.94-.69,2.69,2.69,0,0,1-.49-1.43,4,4,0,0,1,.35-1.9,8.44,8.44,0,0,1,1.63-2.29,9.67,9.67,0,0,1,3-2.13l.08,0L29.73,15l-.08.06a5.86,5.86,0,0,1-1.59.86,2.15,2.15,0,0,1-2-.39A2.59,2.59,0,0,0,27,14.19a2.38,2.38,0,0,0,.09-1.55,2.86,2.86,0,0,0-.35-.76,2,2,0,0,0-1.29-.76,2.54,2.54,0,0,0-1.35.2,2.75,2.75,0,0,0-1.11.9,3.44,3.44,0,0,0-.61,1.45,4.1,4.1,0,0,0,0,1.6,3.94,3.94,0,0,0,.52,1.23,3,3,0,0,0,1,1,5,5,0,0,0,1.66.53,19.87,19.87,0,0,0-2.89,3,8.11,8.11,0,0,0-1.87,4.66,2.64,2.64,0,0,0,1.09,2.53,3.48,3.48,0,0,0,2.31.57A5.4,5.4,0,0,0,26.42,28a9.62,9.62,0,0,0,1.83-1.49,9.38,9.38,0,0,0,1-1.24,4.79,4.79,0,0,0,1.07,2.42,4.33,4.33,0,0,0,1.34,1,4.39,4.39,0,0,0,2.52.24,6.57,6.57,0,0,0,2.47-1.05,7.67,7.67,0,0,0,2.05-2.13,9.24,9.24,0,0,0,1.15-2.32,4.27,4.27,0,0,0,1.25,0,3.25,3.25,0,0,0,.71-.2l0,.49a11,11,0,0,0,0,1.7h0A6.6,6.6,0,0,0,42.17,27a3.7,3.7,0,0,0,.63,1,2.39,2.39,0,0,0,1.12.79,3.65,3.65,0,0,0,2.1,0,7,7,0,0,0,2.24-1.09,9.53,9.53,0,0,0,1.48-1.33l.32-.4A4.89,4.89,0,0,0,51.48,28a5.09,5.09,0,0,0,2,1,5.29,5.29,0,0,0,1.17.13,5.7,5.7,0,0,0,1-.09,5.07,5.07,0,0,0,2.14-1,5.93,5.93,0,0,0,1.66-1.89,6.5,6.5,0,0,0,.78-2.41A9.25,9.25,0,0,0,60.13,21a11.36,11.36,0,0,0-.65-2,10.76,10.76,0,0,0-.6-1.25,6,6,0,0,1-.47-1,4.22,4.22,0,0,1-.26-1,.42.42,0,0,1,0-.18A3.41,3.41,0,0,0,59.49,15.5ZM54.77,26.88a2,2,0,0,1-1-.31,1.54,1.54,0,0,1-.55-.64,1.78,1.78,0,0,1-.11-1.14l.08,0a2.47,2.47,0,0,0,1.22-2.1A2.08,2.08,0,0,0,54,21.1a35.3,35.3,0,0,0,2-3.22,5.57,5.57,0,0,0,0,1l0,.29h0l0,.58a8.54,8.54,0,0,0,.14,1c.06.31.2.84.41,1.6A15.54,15.54,0,0,1,56.9,24a3.57,3.57,0,0,1,0,.94,3.05,3.05,0,0,1-.2.78,2.24,2.24,0,0,1-.42.65,1.68,1.68,0,0,1-.6.43A2.07,2.07,0,0,1,54.77,26.88Zm-7.82-9.21c.19-.61.39-1.2.61-1.75h0A35.61,35.61,0,0,1,49,12.64c.63-1.25,1.17-2.25,1.62-3s.88-1.4,1.27-1.94a7.38,7.38,0,0,1,1.26-1.37,2.37,2.37,0,0,1,1.16-.6h.16a.49.49,0,0,1,.47.21,1,1,0,0,1,.14.57,6.46,6.46,0,0,1-.28,1.4,16.49,16.49,0,0,1-.7,1.69,18.22,18.22,0,0,1-1.45,2.46,22.46,22.46,0,0,1-2.21,2.74,14.85,14.85,0,0,1-2.29,2C47.65,17.22,47.23,17.5,46.95,17.67ZM36.33,19.1a5.57,5.57,0,0,0-.13,1.57A4.75,4.75,0,0,0,36.48,22a3.26,3.26,0,0,0,.54,1,2.31,2.31,0,0,0,.87.6,3.33,3.33,0,0,1-1.64,1.74,2.37,2.37,0,0,1-1.8-.05,2.27,2.27,0,0,1-.76-.63,2.52,2.52,0,0,1-.54-1A5.17,5.17,0,0,1,33,21.54a8.57,8.57,0,0,1,.52-2,5,5,0,0,1,.85-1.47,3.49,3.49,0,0,1,1.07-.82,1.83,1.83,0,0,1,.79-.21l.24,0a.83.83,0,0,1,.57.35A4.66,4.66,0,0,0,36.33,19.1Z"/><path class="cls-1" d="M21.83,16.49H17l0,0a12.78,12.78,0,0,1-1.26,2,5.12,5.12,0,0,1-1.74,1.54,3.31,3.31,0,0,1-1.8.41,2.5,2.5,0,0,1-1.46-.61,2.86,2.86,0,0,1-.85-1.48,7.08,7.08,0,0,1-.24-1.88,8.49,8.49,0,0,1,.24-1.84,25.82,25.82,0,0,0,3.62-.38c.75-.16,1.54-.37,2.35-.62s1.56-.52,2.24-.8,1.28-.57,1.79-.84a17.35,17.35,0,0,0,1.54-.94A17.82,17.82,0,0,0,22.86,10a14.22,14.22,0,0,0,1.3-1.25,11.05,11.05,0,0,0,1-1.23,8.67,8.67,0,0,0,.69-1.21,7.94,7.94,0,0,0,.44-1.18A9.3,9.3,0,0,0,26.53,4a4.79,4.79,0,0,0,0-1.16,3,3,0,0,0-.47-1.26A2.65,2.65,0,0,0,25.14.7,5.58,5.58,0,0,0,23.47.12,8.21,8.21,0,0,0,21,.07a12.92,12.92,0,0,0-3.16.8,18.13,18.13,0,0,0-3.42,1.79A23,23,0,0,0,10.57,6,22.35,22.35,0,0,0,7,11a5.93,5.93,0,0,1-1.36-.89,4.62,4.62,0,0,1-1-1.31,4.5,4.5,0,0,1-.5-2.49A5.17,5.17,0,0,1,4.8,4a5.44,5.44,0,0,1,.77-1l.19-.19-.26,0a6.23,6.23,0,0,0-1.55.45A5.82,5.82,0,0,0,2.2,4.39,9.92,9.92,0,0,0,1,5.79,6.19,6.19,0,0,0,.2,7.6a4.79,4.79,0,0,0-.16,2,4.94,4.94,0,0,0,.61,1.8A5.7,5.7,0,0,0,2.11,13a12.46,12.46,0,0,0,3,1.54A21.35,21.35,0,0,0,3.82,18.9a9.69,9.69,0,0,0,0,3,5.3,5.3,0,0,0,.74,2,5.13,5.13,0,0,0,.38.51,3.46,3.46,0,0,0,1.75.94,5.78,5.78,0,0,0,2.15.1,7.74,7.74,0,0,0,2-.59,9.38,9.38,0,0,0,1.75-1,19.39,19.39,0,0,0,2.25-1.9l-.39.83h0L13.85,24c-1.52,3.14-2.52,5.08-3,5.77a12,12,0,0,1-1.22,1.6,4.77,4.77,0,0,1-1.23.94,2.65,2.65,0,0,1-1.31.35,4.46,4.46,0,0,1-1.07-.13,4.56,4.56,0,0,1-.53-.18,2.66,2.66,0,0,0,1.63-.93,2.9,2.9,0,0,0,.58-1.78A2.27,2.27,0,0,0,7.09,28a2.33,2.33,0,0,0-1.68-.67,2.74,2.74,0,0,0-1.68.48,3.23,3.23,0,0,0-1,1.31,4.43,4.43,0,0,0-.38,1.76,4,4,0,0,0,.38,1.78,4.39,4.39,0,0,0,.79,1.08,3.84,3.84,0,0,0,1.57,1,7.49,7.49,0,0,0,2.14.4h.22a6.92,6.92,0,0,0,2.25-.41,9.54,9.54,0,0,0,2.61-1.43A13.88,13.88,0,0,0,15,30.35a31.06,31.06,0,0,0,2.92-5.2c1-2.2,1.95-4.25,2.76-6.09.37-.84.75-1.66,1.14-2.45Zm.12-11.28a3.47,3.47,0,0,1-.23.76,5.88,5.88,0,0,1-.5.87,8,8,0,0,1-.91,1.09A12,12,0,0,1,19,9.06c-.46.36-1,.72-1.57,1.09a14.07,14.07,0,0,1-2.29,1.1,13,13,0,0,1-3.29.76l-.31,0h0l-.2,0-.18,0-.41,0A24.11,24.11,0,0,1,14.07,7a14.76,14.76,0,0,1,2.64-2.37,7.74,7.74,0,0,1,2.09-1,4.9,4.9,0,0,1,1.62-.21,2.2,2.2,0,0,1,1,.31,1,1,0,0,1,.47.64A1.92,1.92,0,0,1,21.95,5.21Z"/></g></g></svg>