<svg xmlns="http://www.w3.org/2000/svg" viewBox="0 0 109.16 47.92"><defs><style>.cls-1,.cls-2{fill:#263746;}.cls-1{fill-rule:evenodd;}</style></defs><title>Asset 2</title><g id="Layer_2" data-name="Layer 2"><g id="Layer_1-2" data-name="Layer 1"><path class="cls-1" d="M34.45,19.09,34.76,21l-1.08-1.07H31.93v6.82l.93,1H29.63l.93-1V19.91H28.83L27.76,21l.31-1.89ZM2.22,21,4.53,26.3H4.7L7,21.16l.41,5.56-1,1H9.65l-.91-1L8.24,20l.89-.92H6.87l-2,4.53-2-4.53H.52l.89.92-.5,6.74L0,27.7H2.75l-1-1L2.22,21Zm40.11,3.16.54-.57c.12-.1.39-.06.66.45a2.15,2.15,0,0,1-.12,1.88,2.91,2.91,0,0,1-.41.58l.3.29c.68.58.84.56,1.45.51l-.23.4H42.76s-.22-.18-.55-.52l-.37.23a3.38,3.38,0,0,1-2.26.28,1.81,1.81,0,0,1-1.47-1.55,2.25,2.25,0,0,1,1.44-2.3c-.25-.41-.41-.73-.55-1a1.44,1.44,0,0,1,.79-2,2,2,0,0,1,2.29.34c.44.53.53,1.63-1.15,2.3l-.25-.32a1.36,1.36,0,0,0,.72-1.26c0-.5-.29-.86-.66-.86a.78.78,0,0,0-.87.56c-.14.48.19,1,.54,1.63a28.54,28.54,0,0,0,2.29,2.94,1.44,1.44,0,0,0,.31-.74,1.11,1.11,0,0,0-.69-1.28Zm-2.55,0a1.76,1.76,0,0,0-.4,1.75A1.62,1.62,0,0,0,41.32,27a2.19,2.19,0,0,0,.56-.16,17.35,17.35,0,0,1-1.14-1.31c-.4-.52-.71-1-1-1.33Zm-24.88,3c-1.19,0-2.21-1.52-2.21-3.78s1-3.78,2.21-3.78,2.21,1.52,2.21,3.78-1,3.78-2.21,3.78Zm0,.66c-2.07,0-3.86-1.78-3.86-4.44S12.83,19,14.9,19s3.86,1.78,3.86,4.44S17,27.84,14.9,27.84Zm9.25-10.41a.6.6,0,1,1-.6.6.6.6,0,0,1,.6-.6Zm-1.84,0a.6.6,0,1,1-.6.6.6.6,0,0,1,.6-.6Zm4.13,8.39-1.38,1.07H22.52V23.67h1.83l.78.66V22.19l-.78.66H22.52V19.91h2.34l1.1.87-.55-1.69H20.23l.93,1v6.67l-.93,1h5.56l.65-1.89Zm33.33-6.73-.93,1v2.69h3V20.06l-.93-1h3.23l-.93,1v6.67l.93,1H60.93l.93-1V23.56h-3v3.17l.93,1H56.54l.93-1V20.06l-.93-1Zm14.42,0,.93,1v6.67l-.93,1h2.67l-.93-1v-5.6l4.32,6.57h.38V20.06l.93-1H78.78l.93,1v4.17l-3.39-5.15ZM51.81,27.84c-2.07,0-3.86-1.78-3.86-4.44S49.75,19,51.81,19a3.59,3.59,0,0,1,2.24.79l.88-.2-1.05,2.24c-.36-1.34-1.16-2.17-2-2.17-1.2,0-2.24,1.52-2.24,3.78s1,3.78,2.24,3.78c1,0,1.83-1,2.13-2.55A1.26,1.26,0,0,1,54.58,26a2.05,2.05,0,0,1-.72,1.23,3.58,3.58,0,0,1-2,.65Zm34.67-8.74a4.32,4.32,0,0,1,4.16,4.3h0a4.32,4.32,0,0,1-4.16,4.3H83.26l.93-1V20.06l-.93-1h3.23Zm.36,7.8c3,0,3-7,0-7H85.55v7Zm9.61.29c-1.19,0-2.21-1.52-2.21-3.78s1-3.78,2.21-3.78,2.21,1.52,2.21,3.78-1,3.78-2.21,3.78Zm0,.66c-2.07,0-3.86-1.78-3.86-4.44S94.39,19,96.45,19s3.86,1.78,3.86,4.44-1.79,4.44-3.86,4.44Zm5.34-8.75.93,1v6.67l-.93,1h2.67l-.93-1v-5.6l4.32,6.57h.38V20.06l.93-1h-2.79l.93,1v4.17l-3.39-5.15ZM72.34,26.76l.91.94H70l.83-.87-.65-2.1-1.25.41-1.16-.38-.63,2,.91.91H65.21l1-1,2.37-7.61H70l2.39,7.67ZM69,20.87l1,3.31H68l1-3.31Z"/><path class="cls-2" d="M55.83,3.49a6.59,6.59,0,0,0-2.5,0,1.28,1.28,0,0,0,2.5,0Z"/><path class="cls-2" d="M55.86,3h0a1.27,1.27,0,0,1,0,.16A1.3,1.3,0,0,0,55.86,3Z"/><path class="cls-2" d="M55.84,3.48h0Z"/><path class="cls-2" d="M53.33,3.49h0Z"/><circle class="cls-2" cx="54.58" cy="6.46" r="0.32"/><circle class="cls-2" cx="57.11" cy="4.53" r="0.29"/><circle class="cls-2" cx="57.88" cy="4.76" r="0.36"/><path class="cls-2" d="M53.3,3a1.31,1.31,0,0,0,0,.16,1.27,1.27,0,0,1,0-.16Z"/><circle class="cls-2" cx="55.7" cy="4.48" r="0.22"/><circle class="cls-2" cx="56.36" cy="4.48" r="0.26"/><circle class="cls-2" cx="54.58" cy="5.67" r="0.28"/><circle class="cls-2" cx="54.58" cy="5.01" r="0.22"/><path class="cls-2" d="M54.27,4.76a.65.65,0,0,0-.32.09,3.11,3.11,0,0,1-1.2.13,1.78,1.78,0,0,0-1.59.62,1.64,1.64,0,0,0-.05,1.57,1.73,1.73,0,0,1,.17.74.39.39,0,0,1,.3-.16,1.2,1.2,0,0,0-.13-.65,1.76,1.76,0,0,1-.1-1.22,1.1,1.1,0,0,1,.95-.6,7.45,7.45,0,0,1,1.12,0,1.1,1.1,0,0,0,.46-.08,2.59,2.59,0,0,0,0,1.67.67.67,0,0,1,.33,0,2.54,2.54,0,0,1-.11-1A4.13,4.13,0,0,1,54.27,4.76Z"/><circle class="cls-2" cx="60.45" cy="5.5" r="0.34"/><circle class="cls-2" cx="61.25" cy="5.89" r="0.35"/><path class="cls-2" d="M61.34,9.06c.63-2-.28-2.7-.83-3a3.48,3.48,0,0,0-1.1-.31.36.36,0,0,1,.14.32c1.34.23,1.62,1,1.65,1.54A4,4,0,0,1,61,8.83.58.58,0,0,1,61.34,9.06Z"/><circle class="cls-2" cx="61.92" cy="6.59" r="0.39"/><circle class="cls-2" cx="59.57" cy="5.29" r="0.34"/><path class="cls-2" d="M58,5.59A1.78,1.78,0,0,0,56.42,5a3.11,3.11,0,0,1-1.2-.13.65.65,0,0,0-.32-.09,4.14,4.14,0,0,1,.2,1,2.54,2.54,0,0,1-.11,1,.67.67,0,0,1,.33,0,2.59,2.59,0,0,0,0-1.67,1.1,1.1,0,0,0,.46.08,7.45,7.45,0,0,1,1.12,0,1.1,1.1,0,0,1,.95.6,1.76,1.76,0,0,1-.1,1.22,1.2,1.2,0,0,0-.13.65.39.39,0,0,1,.3.16,1.73,1.73,0,0,1,.17-.74A1.64,1.64,0,0,0,58,5.59Z"/><circle class="cls-2" cx="58.88" cy="6.16" r="0.39"/><circle class="cls-2" cx="58.54" cy="5.33" r="0.36"/><circle class="cls-2" cx="58.76" cy="7.07" r="0.36"/><circle class="cls-2" cx="47.91" cy="5.89" r="0.35"/><rect class="cls-2" x="48.35" y="13.75" width="12.46" height="0.39" rx="0.2" ry="0.2"/><circle class="cls-2" cx="46.9" cy="7.59" r="0.42"/><circle class="cls-2" cx="47.08" cy="8.55" r="0.36"/><circle class="cls-2" cx="48.71" cy="5.5" r="0.34"/><circle class="cls-2" cx="47.24" cy="6.59" r="0.39"/><circle class="cls-2" cx="62.08" cy="8.55" r="0.36"/><path class="cls-2" d="M48.68,12.11v1.34h11.8V12.11Zm1.15,1H49V12.5h.81Zm1.29.06-.7-.34.7-.34.7.34Zm1.61,0a.37.37,0,1,1,.37-.37A.37.37,0,0,1,52.73,13.15Zm2.66-.09H53.77V12.5h1.61Zm1,.09a.37.37,0,1,1,.37-.37A.37.37,0,0,1,56.43,13.15Zm1.61,0-.7-.34.7-.34.7.34Zm2.1-.06h-.81V12.5h.81Z"/><path class="cls-2" d="M55.85,3a1.28,1.28,0,0,0-1.05-1.1v1A7.65,7.65,0,0,1,55.85,3Z"/><path class="cls-2" d="M62.31,9.18a.47.47,0,0,0-.53,0,4.36,4.36,0,0,0-.51.5c-.09.06-.23,0-.25-.21s0-.28.05-.32,0-.08-.08-.05a.42.42,0,0,0-.27.26c0,.12,0,.15-.06.16a.41.41,0,0,0-.35.17.49.49,0,0,0-.09.38c0,.06,0,.07-.11.17a.37.37,0,0,0-.16.31c0,.15,0,.23.1.25s0-.18.17-.25a.63.63,0,0,1,.42,0c.07,0,.11.08,0,.19a.89.89,0,0,1-.34.27,1,1,0,0,1-.42,0,.62.62,0,0,1-.38-.37.52.52,0,0,1,0-.24.44.44,0,0,0,.42-.27c.12-.22.09-.46-.05-.54s-.36,0-.48.25a.44.44,0,0,0,0,.49l-.07.08A.59.59,0,0,1,58.25,10c0-.37,0-.46.11-.51a.15.15,0,0,1,.24.08,1.78,1.78,0,0,0,.19.47c.07.08.17,0,.24-.08a.53.53,0,0,0,.09-.26c0-.06,0-.08.11-.1a.24.24,0,0,0,.16-.24c0-.17,0-.22,0-.29a.43.43,0,0,0,.14-.34c0-.13-.17-.11-.4,0s-.25.07-.29,0,0-.06.16-.26.34-.3.36-.47-.14-.19-.26-.19a.19.19,0,0,1-.19-.11.24.24,0,0,0-.26-.08c-.12,0-.16,0-.23-.07s-.15-.1-.25,0-.07.31,0,.6,0,.38,0,.4-.1,0-.14-.12a.87.87,0,0,0-.3-.39.18.18,0,0,0-.24.19.33.33,0,0,1-.08.31.52.52,0,0,0-.14.44c0,.17,0,.23-.07.29s-.11.37,0,.39a.85.85,0,0,0,.57-.23c.17-.15.26-.06.27,0a.83.83,0,0,1-.26.48.72.72,0,0,1-.69.26.62.62,0,0,1-.59-.54.51.51,0,0,0,.36-.41.45.45,0,0,0-.27-.57c-.2,0-.42.14-.47.41a.49.49,0,0,0,.19.54.65.65,0,0,1-.47.46.92.92,0,0,1-1-.44c-.16-.37-.14-.5-.13-.58s.09-.09.16-.11.14,0,.2.13a1.66,1.66,0,0,0,.51.42c.17.06.27,0,.26-.22s0-.28,0-.4.15-.22.08-.39-.11-.11,0-.33.06-.37-.1-.39-.65.32-.73.38-.16,0-.1-.12a7.68,7.68,0,0,0,.37-.76c.08-.2-.06-.3-.24-.25s-.21.07-.27,0-.09-.07-.26-.07-.19,0-.26.07-.09,0-.27,0-.32.05-.24.25a7.65,7.65,0,0,0,.37.76c.06.09,0,.17-.1.12s-.57-.4-.73-.38-.17.17-.1.39,0,.16,0,.33,0,.28.08.39,0,.19,0,.4.09.28.26.22A1.66,1.66,0,0,0,54.09,9c.06-.09.14-.14.2-.13s.14,0,.16.11,0,.21-.13.58a.92.92,0,0,1-1,.44.65.65,0,0,1-.47-.46A.49.49,0,0,0,53,9c-.06-.27-.27-.46-.47-.41a.45.45,0,0,0-.27.57.51.51,0,0,0,.36.41.62.62,0,0,1-.59.54.72.72,0,0,1-.69-.26.83.83,0,0,1-.26-.48c0-.08.11-.17.27,0a.85.85,0,0,0,.57.23c.12,0,.08-.33,0-.39s-.11-.12-.07-.29a.52.52,0,0,0-.14-.44.33.33,0,0,1-.08-.31A.18.18,0,0,0,51.43,8a.87.87,0,0,0-.3.39c0,.11-.1.14-.14.12s0-.1,0-.4.06-.55,0-.6-.18,0-.25,0-.11.09-.23.07a.24.24,0,0,0-.26.08.19.19,0,0,1-.19.11c-.12,0-.28,0-.26.19s.16.26.36.47.2.22.16.26-.06,0-.29,0-.38-.08-.4,0a.43.43,0,0,0,.14.34c.07.07,0,.13,0,.29a.24.24,0,0,0,.16.24c.06,0,.11,0,.11.1a.53.53,0,0,0,.09.26c.08.12.18.16.24.08a1.78,1.78,0,0,0,.19-.47.15.15,0,0,1,.24-.08c.08,0,.09.14.11.51a.59.59,0,0,1-1.06.38l-.07-.08a.44.44,0,0,0,0-.49c-.12-.22-.33-.33-.48-.25s-.17.32-.05.54a.44.44,0,0,0,.42.27.52.52,0,0,1,0,.24.62.62,0,0,1-.38.37,1,1,0,0,1-.42,0,.89.89,0,0,1-.34-.27c-.1-.11-.07-.16,0-.19a.63.63,0,0,1,.42,0c.17.07.12.27.17.25s.1-.11.1-.25a.37.37,0,0,0-.16-.31c-.1-.09-.11-.11-.11-.17a.49.49,0,0,0-.09-.38.41.41,0,0,0-.35-.17c-.08,0,0,0-.06-.16a.42.42,0,0,0-.27-.26c-.13,0-.13,0-.08.05s.07.15.05.32-.16.27-.25.21a4.34,4.34,0,0,0-.51-.5.46.46,0,0,0-.53,0c-.07.06-.13.13-.08.12a.42.42,0,0,1,.26,0,1.61,1.61,0,0,1,.45.37c.16.15.12.16.14.32a1.15,1.15,0,0,0,.1.49c.11.2.37.21.48.28a1.91,1.91,0,0,1,.31.38H60.64a1.9,1.9,0,0,1,.31-.38c.11-.07.37-.08.48-.28a1.15,1.15,0,0,0,.1-.49c0-.16,0-.17.14-.32a1.61,1.61,0,0,1,.45-.37.42.42,0,0,1,.26,0S62.38,9.24,62.31,9.18Zm-14,1.26c0,.08.1.15.05.18s-.15,0-.28-.15a.67.67,0,0,1-.19-.39c0-.15-.07-.21,0-.19a1.07,1.07,0,0,1,.24.23c.05.08.07.13.13.07a.21.21,0,0,1,.19-.07c.08,0,.1.07.06.07a.2.2,0,0,0-.13.06A.13.13,0,0,0,48.3,10.44Zm2.65-1.25c0,.1.05.17,0,.17s-.1-.07-.18-.16-.08-.12-.17-.11a.33.33,0,0,0-.19.11s-.11,0-.06-.12a.33.33,0,0,1,.2-.17c.07,0,.12,0,0-.17a1.23,1.23,0,0,1-.1-.47c0-.15,0-.19.06-.15a1,1,0,0,1,.24.33,2,2,0,0,1,.13.36s.07,0,.13-.06a.22.22,0,0,1,.22.06c.05.06,0,.08,0,.08A.32.32,0,0,0,51,9,.23.23,0,0,0,50.94,9.19Zm3.64-.36c-.12,0-.1-.14-.11-.25s0-.12-.08-.13a.8.8,0,0,0-.24,0c-.1,0-.17,0-.15,0a.33.33,0,0,1,.24-.19c.15,0,.2.09.19-.14s.06-.6.16-.6.17.36.16.6,0,.12.19.14a.33.33,0,0,1,.24.19c0,.05,0,0-.15,0a.8.8,0,0,0-.24,0c-.05,0-.07,0-.08.13S54.7,8.83,54.58,8.83Zm3.64.36A.23.23,0,0,0,58.17,9a.31.31,0,0,0-.2-.07c-.08,0-.09,0,0-.08a.22.22,0,0,1,.22-.06c.06,0,.12.1.13.06a2,2,0,0,1,.13-.36,1,1,0,0,1,.24-.33s.08,0,.06.15a1.23,1.23,0,0,1-.1.47c-.08.15,0,.16,0,.17a.33.33,0,0,1,.2.17c0,.09,0,.16-.06.12a.33.33,0,0,0-.19-.11c-.09,0-.09,0-.17.11s-.12.19-.18.16S58.19,9.28,58.22,9.19Zm3.07.89a.67.67,0,0,1-.19.39c-.13.11-.22.16-.28.15s0-.1.05-.18a.13.13,0,0,0,0-.19.2.2,0,0,0-.13-.06s0-.07.06-.07a.21.21,0,0,1,.19.07c.06.06.08,0,.13-.07a1.07,1.07,0,0,1,.24-.23S61.33,9.93,61.29,10.08Z"/><circle class="cls-2" cx="62.26" cy="7.59" r="0.42"/><path class="cls-2" d="M48.66,6.09c-.55.27-1.47,1-.83,3a.58.58,0,0,1,.31-.23A4,4,0,0,1,48,7.64c0-.56.31-1.3,1.65-1.54a.36.36,0,0,1,.14-.32A3.47,3.47,0,0,0,48.66,6.09Z"/><rect class="cls-2" x="48.35" y="11.42" width="12.46" height="0.39" rx="0.2" ry="0.2"/><circle class="cls-2" cx="53.46" cy="4.48" r="0.22"/><circle class="cls-2" cx="52.8" cy="4.48" r="0.26"/><path class="cls-2" d="M54.36,1.94A1.28,1.28,0,0,0,53.31,3a7.65,7.65,0,0,1,1.05-.11Z"/><circle class="cls-2" cx="49.59" cy="5.29" r="0.34"/><circle class="cls-2" cx="52.05" cy="4.53" r="0.29"/><path class="cls-2" d="M54.8,1.94V1.12l.64.21V.5L54.8.72V.63L55,0h-.88l.22.63V.72L53.72.5v.83l.64-.21v.82l.22,0Z"/><circle class="cls-2" cx="50.28" cy="6.16" r="0.39"/><circle class="cls-2" cx="51.28" cy="4.76" r="0.36"/><circle class="cls-2" cx="50.41" cy="7.07" r="0.36"/><circle class="cls-2" cx="50.62" cy="5.33" r="0.36"/><polygon class="cls-1" points="54.58 42.13 55.3 44.35 57.62 44.34 55.74 45.7 56.46 47.91 54.58 46.54 52.7 47.91 53.42 45.7 51.54 44.34 53.87 44.35 54.58 42.13 54.58 42.13"/><path class="cls-1" d="M30.28,12v.47h.94v.37h-.94v1h-.43V11.58h2V12Zm3.6,1.89a1.33,1.33,0,0,1-.92-.32,1.12,1.12,0,0,1,0-1.66,1.46,1.46,0,0,1,1.83,0,1.12,1.12,0,0,1,0,1.66,1.34,1.34,0,0,1-.92.32Zm0-.38a.87.87,0,0,0,.61-.22.77.77,0,0,0,0-1.11,1,1,0,0,0-1.22,0,.77.77,0,0,0,0,1.11.87.87,0,0,0,.61.22ZM38,13V11.58h.43v2.21h-.24l-1.43-1.45v1.45h-.43V11.58h.25L38,13Zm2.84-1.45a1.4,1.4,0,0,1,.94.31,1,1,0,0,1,.36.8,1,1,0,0,1-.36.8,1.43,1.43,0,0,1-.94.3H39.76V11.58Zm-.65.37v1.46h.65a1,1,0,0,0,.64-.2.73.73,0,0,0,0-1.06.94.94,0,0,0-.63-.2Zm3.52,0v.47h.94v.37H43.7v.62h1.65v.37H43.28V11.58h2V12Zm.56-.49h-.35l.53-.79H45l-.69.79ZM64.19,12v.47h.94v.37h-.94v.62h1.65v.37H63.76V11.58h2V12ZM68.52,13V11.58h.43v2.21H68.7l-1.43-1.45v1.45h-.43V11.58h.25L68.52,13Zm3.28.77V11.68h.38V13.8Zm3.13-1.74H73.53v-.38h2.11l-1.42,2.11h-.45l1.16-1.73Zm2.39,1.25H75.81V13l1.55-1.29h.34v1.25H78v.38h-.32v.48h-.38v-.48Zm-.88-.38h.88v-.73l-.88.73Zm3.73-.33a.59.59,0,0,1,.18.17.56.56,0,0,1,.09.32.65.65,0,0,1-.3.53,1.21,1.21,0,0,1-.73.21,1.58,1.58,0,0,1-.62-.12,1.56,1.56,0,0,1-.51-.36l0,0,.24-.3.05.05a1.62,1.62,0,0,0,.43.31,1.05,1.05,0,0,0,.44.09.9.9,0,0,0,.48-.12.3.3,0,0,0,.17-.25.22.22,0,0,0-.12-.2,1,1,0,0,0-.44-.08h-.15v-.38h.19a.67.67,0,0,0,.3-.05.15.15,0,0,0,.07-.14.19.19,0,0,0-.1-.17.57.57,0,0,0-.31-.08,1,1,0,0,0-.36.07,1.47,1.47,0,0,0-.37.21l-.06,0L78.48,12l0,0a1.55,1.55,0,0,1,1-.33.92.92,0,0,1,.57.17.58.58,0,0,1,.17.69.48.48,0,0,1-.08.12Z"/><path class="cls-2" d="M24.54,34.44l.07,0,.45-.82-.07,0c-.06.06-.1.09-.14.09a4.4,4.4,0,0,0-1.68-.43,2,2,0,1,0,0,3.89,2.69,2.69,0,0,0,1.45-.41c.19-.11.29-.21.34-.21a.25.25,0,0,1,.14.06l.07-.05-.59-.73-.06.06a.44.44,0,0,1,0,.13,1.66,1.66,0,0,1-1.36.64,1.44,1.44,0,1,1,0-2.86,2.28,2.28,0,0,1,1.09.29c.17.09.26.15.26.25a.28.28,0,0,1,0,.1ZM29,37.11h.93V37c-.14,0-.17-.07-.17-.21V35.43h2.48v1.39c0,.14,0,.17-.16.21v.09H33V37c-.14,0-.16-.07-.16-.21V33.64c0-.14,0-.18.16-.21v-.08h-.92v.08c.14,0,.16.08.16.21v1.3H29.74v-1.3c0-.14,0-.18.17-.21v-.08H29v.08c.14,0,.16.08.16.21v3.17c0,.14,0,.17-.16.21v.09Zm7.81,0h.89V37c-.06,0-.09-.06-.09-.11a.5.5,0,0,1,.07-.19l.26-.59h2l.28.59a.55.55,0,0,1,.06.19c0,.05,0,.09-.09.11v.09h1V37a.62.62,0,0,1-.33-.34l-1.39-2.94a.46.46,0,0,1-.06-.19.13.13,0,0,1,.09-.12v-.08h-1v.08a.13.13,0,0,1,.09.12.55.55,0,0,1-.06.19l-1.35,3a.47.47,0,0,1-.3.29v.09Zm1.35-1.5L38.9,34l.76,1.65Zm7.41,1.2V34l1.58,3,1.5-3.09v2.93c0,.14,0,.17-.16.21v.09h.93V37c-.14,0-.16-.07-.16-.21V33.64c0-.14,0-.18.16-.21v-.08H48.14v.08c.09,0,.14.07.14.14a.38.38,0,0,1,0,.11l-1.09,2.25L46,33.68,46,33.57c0-.07,0-.11.14-.14v-.08H44.92v.08c.14,0,.16.08.16.21v3.17c0,.14,0,.17-.16.21v.09h.8V37c-.14,0-.16-.07-.16-.21Zm10-2.94c.76,0,1.15.13,1.15.54s-.37.56-1.11.56H54.48v-1.1Zm.16-.52h-2v.08c.14,0,.16.08.16.21v3.17c0,.14,0,.17-.16.21v.09h.93V37c-.14,0-.17-.07-.17-.21V35.49h1.14c1.09,0,1.65-.3,1.65-1.05s-.54-1.09-1.55-1.09Zm4.58,3.76h.89V37c-.06,0-.09-.06-.09-.11a.5.5,0,0,1,.07-.19l.26-.59h2l.28.59a.55.55,0,0,1,.06.19c0,.05,0,.09-.09.11v.09h1V37a.62.62,0,0,1-.33-.34l-1.39-2.94a.46.46,0,0,1-.06-.19.13.13,0,0,1,.09-.12v-.08h-1v.08a.13.13,0,0,1,.09.12.55.55,0,0,1-.06.19l-1.35,3a.47.47,0,0,1-.3.29v.09Zm1.35-1.5L62.4,34l.76,1.65Zm10.64.8v-.11l-.16-.05v-.78c0-.14,0-.17.16-.21v-.09H70.57c-.14,0-.17,0-.21-.16h-.08v.83h.09c0-.14.07-.16.21-.16h1v.57a2.34,2.34,0,0,1-1.27.4,1.44,1.44,0,1,1,0-2.86,2.17,2.17,0,0,1,1.07.29c.18.09.26.15.26.26a.25.25,0,0,1,0,.09l.07,0,.45-.82-.07,0c-.06.06-.1.09-.14.09a4.4,4.4,0,0,0-1.68-.43,2,2,0,1,0,0,3.89,3.12,3.12,0,0,0,2-.76Zm7,.69h1V37c-.14,0-.16-.07-.16-.21V33.64c0-.14,0-.18.16-.21v-.08h-.8v.08c.14,0,.16.08.16.21v2.48l-2.23-2.45a.16.16,0,0,1,0-.11c0-.07,0-.11.14-.14v-.08H76.3v.08c.14,0,.16.08.16.21v3.17c0,.14,0,.17-.16.21v.09h.81V37c-.14,0-.17-.07-.17-.21V34l2.49,2.81a.17.17,0,0,1,0,.11c0,.07,0,.11-.14.14v.09Zm8.5-.47H85.42V35.41h1.5c.14,0,.17,0,.21.16h.08v-.8h-.09c0,.14-.08.17-.21.17H85.42V33.82h2.26c.14,0,.18,0,.21.16H88v-.81h-.08c0,.14-.09.18-.21.18h-3v.08c.14,0,.16.09.16.21v3.17c0,.13,0,.17-.16.21v.09h3.18c.14,0,.17,0,.21.16h.08v-.8H88c0,.14-.07.16-.21.16Z"/></g></g></svg>