<svg xmlns="http://www.w3.org/2000/svg" viewBox="0 0 98.93 41"><defs><style>.cls-1,.cls-2{fill:#263746;}.cls-2{fill-rule:evenodd;}</style></defs><title>Asset 7</title><g id="Layer_2" data-name="Layer 2"><g id="Layer_1-2" data-name="Layer 1"><rect class="cls-1" x="26.26" y="32.47" width="1.13" height="8.53"/><polygon class="cls-2" points="35.14 41 35.14 33.48 32.33 33.48 32.33 32.47 39.09 32.47 39.09 33.48 36.27 33.48 36.27 41 35.14 41"/><path class="cls-2" d="M43.77,41l3-8.58h1.35l3,8.58H49.84L49,38.42H45.9L45,41Zm2.33-3.47,2.62,0s-1.25-3.66-1.38-4.12C47.23,33.91,46.09,37.53,46.09,37.53Z"/><polygon class="cls-2" points="57.11 41 57.11 32.47 58.24 32.47 58.24 39.99 62.44 39.99 62.44 41 57.11 41"/><path class="cls-2" d="M68.62,41V37.39l-2.76-4.92h1.37s1.75,3.53,2,4c.26-.45,2.08-4,2.08-4h1.31l-2.9,4.92V41Z"/><path class="cls-1" d="M5.65,3.23v6.9H8.8a3.56,3.56,0,0,0,3.67-3.45A3.56,3.56,0,0,0,8.8,3.23ZM0,0H9.67a6.74,6.74,0,0,1,6.84,6.64,6.74,6.74,0,0,1-6.84,6.64h-4v5.84a5.15,5.15,0,0,0,1.6,3.8H.17a5.15,5.15,0,0,0,1.6-3.8V3.77A4.88,4.88,0,0,0,0,0Z"/><path class="cls-1" d="M39.81,5.95v5.74h2.62a3,3,0,0,0,3-2.87,3,3,0,0,0-3-2.87Zm-5.58-3.4H43a6.09,6.09,0,0,1,6.18,6,5.92,5.92,0,0,1-2.46,4.79c1.64,1.43,2.62,4.46,3.51,6.6a5.65,5.65,0,0,0,2.46,2.91H45.94a1.91,1.91,0,0,0,.47-1.37,19.71,19.71,0,0,0-1.82-4.64,4.23,4.23,0,0,0-3.19-2.29H39.87v4.89a4.65,4.65,0,0,0,1.44,3.43H34.38a4.65,4.65,0,0,0,1.44-3.43V5.94A4.4,4.4,0,0,0,34.23,2.54Z"/><path class="cls-1" d="M55.78,12.8c0,4,2,7.2,4.48,7.2s4.48-3.22,4.48-7.2-2-7.2-4.48-7.2S55.78,8.83,55.78,12.8Zm-4-.66c0-5.4,3.78-9.77,8.45-9.77s8.45,4.38,8.45,9.77v1.31c0,5.4-3.78,9.77-8.45,9.77s-8.45-4.38-8.45-9.77Z"/><path class="cls-1" d="M98.93,22.84H92.11a4.44,4.44,0,0,0,1.57-3.41V6.08a4.44,4.44,0,0,0-1.52-3.36h6.72a4.44,4.44,0,0,0-1.52,3.36V19.43A4.44,4.44,0,0,0,98.93,22.84Z"/><path class="cls-1" d="M88.93,22.84H84.1L76,10.35v9.08a4.44,4.44,0,0,0,1.57,3.41H70.73a4.44,4.44,0,0,0,1.57-3.41V6.08a4.44,4.44,0,0,0-1.52-3.36H75.6l8.08,12.44V6.08a4.44,4.44,0,0,0-1.52-3.36h6.72a4.44,4.44,0,0,0-1.52,3.36V19.43A4.44,4.44,0,0,0,88.93,22.84Z"/><path class="cls-1" d="M27.71,14.35A14.18,14.18,0,0,0,31.31,14l.33.53c-3.38.73-4.83.21-4.83.21v0c-.05.06-.5.51-2.48.25s-5.73-.12-8,1.33a8.76,8.76,0,0,1,.89-1.8l-.68-1a11.66,11.66,0,0,1,5.34-1.09,17.8,17.8,0,0,1,3.07.17l.14,0c1.24.24,1.55.1,1.55.1h0a.59.59,0,0,0,.36-.44,1.57,1.57,0,0,1-.89.24l-.31,0a15,15,0,0,0-3.94-.36c-2.48,0-4.6.53-5.49,1.19l-.25-.39c.51-.59,2-1.08,3.88-1.3V6.08A4.44,4.44,0,0,0,18.5,2.71L31,2.76l.46,4.06c-.75-.69-3.23-.74-3.23-.74H24v5.47c.48,0,.94.11,1.35.2a4.14,4.14,0,0,0,.06-1.38,13.26,13.26,0,0,0,2.76.25,8.62,8.62,0,0,0,3.4-.47l-.42.8a12.23,12.23,0,0,1-4.55.18s.77.88,4.39.14l-.67,1.28.76,1.21a11.43,11.43,0,0,1-3.33.3c-.64-.13-.71-.05-.71-.05S26.65,14.28,27.71,14.35ZM16.17,16.89C18.76,15,22.43,15,24.38,15.36S26.68,15,26.68,15s.19,1.36-2.31,1l-.34,0v3.57h4.82s2.48-.05,3.23-.74l-.46,4.06H18.45A4.44,4.44,0,0,0,20,19.43V16A9,9,0,0,0,16,17.66C16,17.49,16.08,17.24,16.17,16.89Z"/></g></g></svg>