<svg xmlns="http://www.w3.org/2000/svg" viewBox="0 0 109.16 39.47"><defs><style>.cls-1{fill:#263746;}</style></defs><title>Asset 3</title><g id="Layer_2" data-name="Layer 2"><g id="Layer_1-2" data-name="Layer 1"><path class="cls-1" d="M108.75,18.38a1.4,1.4,0,0,0-2,2,1.4,1.4,0,1,0,2-2Zm-.13,1.85a1.22,1.22,0,0,1-1.72,0,1.19,1.19,0,0,1-.35-.86,1.21,1.21,0,0,1,1.21-1.21,1.18,1.18,0,0,1,.86.36,1.16,1.16,0,0,1,.35.86A1.17,1.17,0,0,1,108.62,20.24Z"/><path class="cls-1" d="M108.39,19a.39.39,0,0,0-.24-.39,1.19,1.19,0,0,0-.43-.06h-.54v1.54h.26v-.6h.22a.64.64,0,0,1,.31,0,.37.37,0,0,1,.15.35v.17a0,0,0,0,0,0,0h.25v0a.31.31,0,0,1,0-.08s0-.08,0-.11v-.11a.4.4,0,0,0-.09-.24.36.36,0,0,0-.26-.15.62.62,0,0,0,.22-.07A.34.34,0,0,0,108.39,19Zm-.43.26a.71.71,0,0,1-.26,0h-.25v-.56h.24a.76.76,0,0,1,.34.06.24.24,0,0,1,.1.22A.24.24,0,0,1,108,19.31Z"/><path class="cls-1" d="M84.5,16.81a2.08,2.08,0,0,0,1.09-1V10.34a4,4,0,0,0-.8-2.28h3.81a4.14,4.14,0,0,0-.79,2.32v6.25A4.16,4.16,0,0,0,88.61,19l-3,0V17.66c-1.16,2.1-4.31,2.51-4.31-1.81V10.34A3.06,3.06,0,0,0,81,9.08L81,9a3.9,3.9,0,0,0-.65-1l2.69,0a6.24,6.24,0,0,1,.48,2.34v5.11c0,.81.31,1.27.74,1.31A.72.72,0,0,0,84.5,16.81Z"/><path class="cls-1" d="M79.91,21.75v2.83h.34c9.47.37,18.12,1.87,19.73,2.55l7-4.78c-4.1-.23-12.47-.64-23.21-.64l-3.53,0Z"/><path class="cls-1" d="M20.11,16.9l-3,1a2.74,2.74,0,0,1,.17.22,5.07,5.07,0,0,1,.3.47A3.24,3.24,0,0,1,17.87,20v6.82a5.67,5.67,0,0,1-.81,2.64l3.85-1.36a2.86,2.86,0,0,1-.8-2Zm-2-1a1.19,1.19,0,0,0,.9.32,1.71,1.71,0,0,0,1.45-1.87c0-.93-.43-1.62-2.22-1.74h-.92c0-6.83-3.62-10.83-7.61-10.83S3,4.55,1.75,5.62a2.19,2.19,0,0,1,1.09.87h0a.84.84,0,0,1,.11.21,2.06,2.06,0,0,1,.17.85C3.12,8.68,1,13.45,1,15.33c0,1.46.88,2.17,2,2.08a1.9,1.9,0,0,0,1.82-1.88A1.31,1.31,0,0,0,4,14.31a1.58,1.58,0,0,0-.37-.11,1.34,1.34,0,0,0-.67.06c0-4,3.19-7.47,6.28-7.47a4.07,4.07,0,0,1,3.26,1.54l.18.23a8,8,0,0,1,1.26,4.65v.05a24,24,0,0,0-2.76,1.09l-.33.16-.64.31V12.64a5.77,5.77,0,0,1,.76-2.81l-5.35,2a2.73,2.73,0,0,1,1.09.92l.1.18a1.84,1.84,0,0,1,.24.87v2.9C3.17,19.28,0,22.77,0,26c0,2.74,1.44,4,3.53,4A8.77,8.77,0,0,0,7,29.25v6.29a2.73,2.73,0,0,1-.71,1.79,3.06,3.06,0,0,1-.35.34,2.81,2.81,0,0,1-1.29.62,2.1,2.1,0,0,0,.7-1.71,1.79,1.79,0,0,0-1.62-2,2,2,0,0,0-1.89,2.24,2.5,2.5,0,0,0,3.72,2.32l6-2.64-.18-.09-.18-.1a2.47,2.47,0,0,1-1.08-2.18v-6.9a20.37,20.37,0,0,0,7.11-13.38l.58-.05a2.1,2.1,0,0,0-.17.83,2,2,0,0,0,.13.74A1.36,1.36,0,0,0,18.14,15.89Zm-7.32,7.93c-.21.29-.42.56-.64.82v-8a25.23,25.23,0,0,1,3.67-1.8c0,.32-.06.63-.1.94s0,.38-.06.51a17.24,17.24,0,0,1-2.54,7C11,23.51,10.89,23.72,10.82,23.82ZM4.33,27.31a2.27,2.27,0,0,1-1-2.14c0-2.27,1.56-4.46,3.71-6.31v8.32a4,4,0,0,1-1.63.4,2.3,2.3,0,0,1-.86-.16Z"/><path class="cls-1" d="M15.11,32.88a3.53,3.53,0,0,0,1.5-.3,167.63,167.63,0,0,1,26.46-7.5,196.33,196.33,0,0,1,33.09-3.26v2.69H76c-24.37,0-40.91,2.77-59.12,9.9-2.15.84-3.91.3-4.53-1.62-.76-2.34,2-3.9,3.37-2.88-1.14.31-1.92,1.21-1.6,2.14a1.12,1.12,0,0,0,.69.77Z"/><path class="cls-1" d="M35.36,24a3.14,3.14,0,0,1-.8-2.1V16.11c.81-1.57,1.81-1.75,2.05-.72a3.16,3.16,0,0,1,.05.4s0,.09,0,.15v5.34a5.44,5.44,0,0,0,.48,2.25l3-.7L40,22.7a2.35,2.35,0,0,1-1.07-1.88V14.93c0-4.36-3.18-3.15-4.35-.75V12.89l-3,.75a3.31,3.31,0,0,1,.81,2.17v6.55a4.68,4.68,0,0,1-.47,1.92,5.85,5.85,0,0,1-.36.65Z"/><path class="cls-1" d="M22.1,25.38A5.55,5.55,0,0,1,21.29,28l3.85-1.26a2.92,2.92,0,0,1-.8-2V9.39l-3,.9a3.16,3.16,0,0,1,.81,2.14Z"/><path class="cls-1" d="M51.24,20.95a3.47,3.47,0,0,1-.8-2.18V13.26c.87-1.59,2-1.48,2.5-.5A2.14,2.14,0,0,1,53,13l1.06-3c-1-1.11-2.82-.21-3.64,1.4V10l-3,.48a3.57,3.57,0,0,1,.81,2.25V19a4.26,4.26,0,0,1-.42,1.73,2.45,2.45,0,0,1-.52.76Z"/><path class="cls-1" d="M45.57,17.94s0,.08,0,.11a1.92,1.92,0,0,1-1.33,2.5,1.19,1.19,0,0,1-.44,0l-.21-.08c-.71-.33-1.13-1.46-1.2-3.14a3.62,3.62,0,0,0,4.35-3.59c0-1.42-.88-3.37-3-3s-3.74,2.67-3.74,6.54c0,3.56,1.93,5.37,4,5a2.93,2.93,0,0,0,2.75-2.8,1.48,1.48,0,0,0-1-1.53A.59.59,0,0,0,45.57,17.94Zm-2.42-2a5.06,5.06,0,0,1-.7.2c.09-2,.55-3.52,1.48-3.7.4-.08.66.19.77.63,0,.08,0,.3.06.39s0,.1,0,.15a2.17,2.17,0,0,1-1.2,2.14Z"/><path class="cls-1" d="M71.26,11.57v0l1-2.87c-1-1.19-2.73-.53-3.56.92V8.34l-3,.16a3.89,3.89,0,0,1,.8,2.31v6.28a4.3,4.3,0,0,1-.8,2.36l3.81-.17a3.78,3.78,0,0,1-.8-2.25V11.55c.83-1.35,1.84-1.17,2.38-.24C71.19,11.41,71.23,11.5,71.26,11.57Z"/><path class="cls-1" d="M94.43,15.2l0,.06c.26.66,0,2.4-1.36,2.4a1.21,1.21,0,0,1-.33-.05l-.21-.09c-.75-.38-1.16-1.55-1.17-3.29a3.27,3.27,0,0,0,4.42-3A3,3,0,0,0,93,7.86C90.8,7.86,89,10.34,89,13.79c0,3.86,1.5,5.51,3.71,5.51a2.62,2.62,0,0,0,2.9-2.43,1.59,1.59,0,0,0-1-1.67A.45.45,0,0,0,94.43,15.2Zm-2.29-2.29a4.54,4.54,0,0,1-.71.11c.15-2,.65-3.48,1.58-3.48a.75.75,0,0,1,.72.65,2.45,2.45,0,0,1,.06.36c0,.08,0,.17,0,.26a1.94,1.94,0,0,1-1.24,2A3.38,3.38,0,0,1,92.13,12.91Z"/><path class="cls-1" d="M77.06,28.61l3-2a2.15,2.15,0,0,1-.8-1.81V10.4a4.2,4.2,0,0,1,.8-2.34l-3,0V9.31a2.07,2.07,0,0,0-2-1.32,2.79,2.79,0,0,0-2,1.47c-.12.16-.33.55-.33.55A8,8,0,0,0,72,11.9s0,.18,0,.19a10.21,10.21,0,0,0-.21,1.74c-.11,3.21,1,5.43,3,5.43A2.68,2.68,0,0,0,77,17.7v10.9Zm0-17.45,0,0v3.62a.57.57,0,0,0,0,.12c0,.93-.58,2.18-1.52,2.18h-.11l-.18,0c-.72-.27-1.19-1.56-1.12-3.44.08-2.25.76-3.5,1.57-3.5a1.4,1.4,0,0,1,1.18.77Z"/><path class="cls-1" d="M61.57,19.74v-2a.71.71,0,0,0,0,.09,3.69,3.69,0,0,1-3.35,2.5,1.9,1.9,0,0,1-1.5-.71,3,3,0,0,1-2.67,1c.89-.34,1.68-1.63,1.88-3.27,0-.26,0-.54,0-.84V8.88c0-2.43-2.94-3.15-2.94-5.69C52.91,1.32,55.3,0,56.18,0a3.1,3.1,0,0,0-.72,2c0,2.27,3.08,3.21,3.08,6.3v7.76c0,.89.3,1.29.74,1.37h.26a2.86,2.86,0,0,0,2-1.86V5.64a4.48,4.48,0,0,0-1-2.69l4.62-.32a5.37,5.37,0,0,0-1,2.9V16.72a4.69,4.69,0,0,0,1,2.78Z"/><path class="cls-1" d="M97.16,16.83a4.11,4.11,0,0,1-.81,2.34l3.85.09a4.06,4.06,0,0,1-.8-2.32V2.36l-3-.08a4.2,4.2,0,0,1,.81,2.39Z"/><path class="cls-1" d="M100.84,19.29l3.85.16a4.11,4.11,0,0,1-.81-2.34V2.54l-3-.13a4.3,4.3,0,0,1,.81,2.41V17A4,4,0,0,1,100.84,19.29Z"/><path class="cls-1" d="M30.11,16.85a2.13,2.13,0,0,0-1.43-1,.88.88,0,0,0-.92.93c0,1.83,3.16,3.08,3.16,5.88a3.35,3.35,0,0,1-2.72,3.37,2.32,2.32,0,0,1-2.89-2.29A1.77,1.77,0,0,1,27,22c-.52.35-.67,2.12.35,2.43a1.64,1.64,0,0,0,.25,0h.08c.65,0,1.07-.47,1.07-1.33,0-1.76-3.24-3.27-3.24-5.64a3.29,3.29,0,0,1,2.61-3.27,4.42,4.42,0,0,1,2.78.24l-.67,2.62A1.92,1.92,0,0,0,30.11,16.85Z"/></g></g></svg>