<?xml version="1.0" encoding="utf-8"?>
<!-- Generator: Adobe Illustrator 21.1.0, SVG Export Plug-In . SVG Version: 6.00 Build 0)  -->
<svg version="1.1" id="Layer_1" xmlns="http://www.w3.org/2000/svg" xmlns:xlink="http://www.w3.org/1999/xlink" x="0px" y="0px"
	 viewBox="0 0 171.6 99.4" style="enable-background:new 0 0 171.6 99.4;" xml:space="preserve">
<style type="text/css">
	.st0{display:none;stroke:#FFFFFF;stroke-miterlimit:10;}
	.st1{enable-background:new    ;}
	.st2{fill:#FFFFFF;}
</style>
<rect x="13" y="-26.3" class="st0" width="317.5" height="236.5"/>
<g>
	<g class="st1">
		<path class="st2" d="M0.7,62.1h3.4v-7.7h6.4v7.7h4.2v4.3h-4.2v13.1c0,1.8,1,2.4,2.4,2.4c0.8,0,1.9,0,1.9,0v4.8
			c0,0-1.5,0.1-4.1,0.1c-3.2,0-6.7-1.2-6.7-5.9V66.4H0.7V62.1z"/>
		<path class="st2" d="M24.6,65.3h0.1c1.8-2.6,3.8-3.9,7.2-3.9c5.1,0,8.5,3.8,8.5,9.2v16.1h-6.5V71.6c0-2.6-1.5-4.5-4.3-4.5
			c-2.9,0-5,2.3-5,5.7v14H18V52.4h6.5V65.3z"/>
		<path class="st2" d="M43.2,74.4c0-7.3,4.9-13,12.1-13c7.9,0,12.1,6,12.1,14.8H49.6c0.5,3.8,2.6,6.1,6.3,6.1c2.5,0,4-1.2,4.8-3h6.4
			c-0.9,4.4-4.8,8.1-11.1,8.1C47.8,87.5,43.2,81.8,43.2,74.4z M49.7,71.8h10.9c-0.2-3.1-2.3-5.3-5.2-5.3
			C52,66.5,50.3,68.6,49.7,71.8z"/>
		<path class="st2" d="M85,83.7L85,83.7l-0.1,3.1h-6.3V52.4h6.5v12.7h0.1c1.3-2.1,3.5-3.6,6.9-3.6c6.2,0,10.6,5.3,10.6,13
			c0,8-4.2,13-10.4,13C88.8,87.5,86.4,86,85,83.7z M96.1,74.5c0-4.6-1.8-7.7-5.5-7.7c-4.1,0-5.7,3.3-5.7,7.9c0,4.5,2.3,7.4,5.9,7.4
			C94.2,82,96.1,79.2,96.1,74.5z"/>
		<path class="st2" d="M104.5,74.4c0-7.3,4.9-13,12.1-13c7.9,0,12.1,6,12.1,14.8H111c0.5,3.8,2.6,6.1,6.3,6.1c2.5,0,4-1.2,4.8-3h6.4
			c-0.9,4.4-4.8,8.1-11.1,8.1C109.2,87.5,104.5,81.8,104.5,74.4z M111.1,71.8H122c-0.2-3.1-2.3-5.3-5.2-5.3
			C113.3,66.5,111.6,68.6,111.1,71.8z"/>
		<path class="st2" d="M146.6,84L146.6,84c-1.3,1.9-3.1,3.3-7.3,3.3c-5,0-8.6-2.6-8.6-7.5c0-5.4,4.4-7.2,9.9-7.9
			c4.1-0.6,6-0.9,6-2.8c0-1.8-1.4-2.9-4.1-2.9c-3.1,0-4.6,1.1-4.8,3.5h-5.8c0.2-4.3,3.4-8.1,10.6-8.1c7.4,0,10.4,3.3,10.4,9.1v12.5
			c0,1.9,0.3,3,0.9,3.4v0.2h-6.3C147,86.3,146.7,85.1,146.6,84z M146.6,78.1v-3.7c-1.2,0.7-2.9,1.1-4.6,1.4
			c-3.4,0.8-5.1,1.5-5.1,3.8c0,2.3,1.5,3.1,3.8,3.1C144.6,82.8,146.6,80.5,146.6,78.1z"/>
		<path class="st2" d="M163.2,66.1h0.1c1.5-2.8,3.2-4.2,6-4.2c0.7,0,1.2,0,1.5,0.2v5.7h-0.1c-4.3-0.4-7.3,1.8-7.3,7v12h-6.5V62.1
			h6.3V66.1z"/>
	</g>
	<g class="st1">
		<path class="st2" d="M4.1,16.5h6.3v3.1h0.1c1.6-2.2,3.9-3.7,7.2-3.7c6.5,0,10.7,5.3,10.7,13c0,8-4.3,13-10.7,13
			c-3.5,0-5.7-1.4-7.1-3.5h-0.1v10.8H4.1V16.5z M21.9,29.1c0-4.7-1.6-7.9-5.7-7.9c-4.1,0-5.7,3.5-5.7,7.9c0,4.5,2.1,7.4,6,7.4
			C19.8,36.5,21.9,33.7,21.9,29.1z"/>
		<path class="st2" d="M30.3,28.9c0-7.3,5.2-13,12.9-13c7.6,0,12.9,5.7,12.9,13s-5.2,13-12.9,13C35.6,41.9,30.3,36.2,30.3,28.9z
			 M49.4,28.9c0-4.8-2.3-8.1-6.2-8.1c-4,0-6.2,3.3-6.2,8.1s2.2,8,6.2,8C47.2,36.9,49.4,33.7,49.4,28.9z"/>
		<path class="st2" d="M68.4,29.9l-2.8,2.9v8.3h-6.5V6.8h6.5v19l8.7-9.3h7.8L73,25.9l10.2,15.3h-7.9L68.4,29.9z"/>
		<path class="st2" d="M82.4,28.8c0-7.3,4.9-13,12.1-13c7.9,0,12.1,6,12.1,14.8H88.8c0.5,3.8,2.6,6.1,6.3,6.1c2.5,0,4-1.2,4.8-3h6.4
			c-0.9,4.4-4.8,8.1-11.1,8.1C87,41.9,82.4,36.2,82.4,28.8z M88.9,26.2h10.9c-0.2-3.1-2.3-5.3-5.2-5.3C91.2,20.9,89.5,23,88.9,26.2z
			"/>
	</g>
</g>
</svg>
