<svg xmlns="http://www.w3.org/2000/svg" viewBox="0 0 93.57 13.84"><defs><style>.cls-1{fill:#263746;fill-rule:evenodd;}</style></defs><title>Asset 4</title><g id="Layer_2" data-name="Layer 2"><g id="Layer_1-2" data-name="Layer 1"><path class="cls-1" d="M91.6,4.9a1.05,1.05,0,0,0-.31.73,1.15,1.15,0,0,0,.31.77,1.05,1.05,0,0,0,.73.31,1.05,1.05,0,0,0,1-1.08.91.91,0,0,0-.31-.73,1,1,0,0,0-.73-.31,1.05,1.05,0,0,0-.73.31Zm1.62,1.62a1.29,1.29,0,0,1-.89.35,1.2,1.2,0,0,1-.85-.35,1.29,1.29,0,0,1-.35-.89,1.18,1.18,0,0,1,1.19-1.19,1.29,1.29,0,0,1,.89.35,1.2,1.2,0,0,1,.35.85,1.29,1.29,0,0,1-.35.89Zm-.65-1.35a2.18,2.18,0,0,0-.27,0H92.1v.5h.19a1.36,1.36,0,0,0,.23,0,.23.23,0,0,0,.12-.23c0-.08,0-.15-.08-.19ZM92.33,5a.86.86,0,0,1,.35,0,.34.34,0,0,1,.19.35.35.35,0,0,1-.12.27.29.29,0,0,1-.19,0,.35.35,0,0,1,.23.15c0,.08.08.12.08.19v.27h-.19l0,0V6.13c0-.15,0-.27-.12-.31s-.12,0-.27,0H92.1v.5h-.23V5Z"/><path class="cls-1" d="M12.19,0c.42,0,.39.31.31.66l-.12.58c-.15.54-.39.42-.62.42H10.15c-1.7,0-2,1.19-2.27,2.27l-2.2,9.4c-.12.42-.39.5-.77.5H2.17c-.77,0-.5-.5-.5-.69l2.2-9.21c.54-2.2-.31-2.27-2.23-2.27H.47c-.23,0-.54-.08-.46-.39L.24.35C.32,0,.63,0,.9,0Z"/><path class="cls-1" d="M40.78,4.82H51c1.08,0,2.31.54,1.89,2.23l-1.46,6.28c-.08.46-.46.46-.81.5H48.45c-.19,0-.69,0-.58-.46l1.46-6.32a.67.67,0,0,0-.65-.92.94.94,0,0,0-.92.77l-1.5,6.43c-.08.46-.42.5-.73.5H43.36c-.19,0-.69,0-.62-.5l1.5-6.28a.7.7,0,0,0-.69-.92.93.93,0,0,0-.89.77l-1.5,6.43c-.08.27-.15.5-.69.5H38.24c-.27,0-.73-.08-.62-.5l1.93-8.17A.43.43,0,0,1,40,4.82Z"/><path class="cls-1" d="M73.3,0c.58,0,.42.39.39.66l-3,12.68c-.12.42-.46.5-.81.5H64.09c-1.35,0-1.5-1.62-1.23-2.66L64,6.32a2,2,0,0,1,2.08-1.5h2.23c.42,0,.19.5.12.81S68.21,6,68,6c-.66,0-.81.42-.92.81l-1.16,5a.66.66,0,0,0,.62.92.86.86,0,0,0,.89-.69L70.18.43c.12-.46.5-.42.77-.42Z"/><path class="cls-1" d="M55.34,4.82c-.42,0-.66,0-.77.31l-.08.42c0,.12-.08.39.23.39h3.89c.65,0,.5.42.27,1.46L57.81,12a.85.85,0,0,1-.85.73.66.66,0,0,1-.62-.92L57,9c.08-.31.15-.54.69-.54.12,0,.46,0,.54-.31s.27-.66-.08-.66H55.27c-1.31,0-1.46,1-1.58,1.5l-.5,2.12c-.27,1.16,0,2.7,1.31,2.7h5.74c.35,0,.73,0,.85-.5l1.46-6.28c.42-1.7-.81-2.23-1.93-2.23Z"/><path class="cls-1" d="M25.52,9.87c-.08.23,0,.35.23.35h2.81c1.35,0,1.46-1,1.54-1.5l.42-1.81A1.49,1.49,0,0,0,29.1,4.82H23.59a1.34,1.34,0,0,0-1.23,1.12L21.05,11.6c-.42,1.7.85,2.23,1.93,2.23h5.39c.46,0,.58,0,.66-.31l.12-.42c0-.12.08-.42-.23-.39H25c-.65,0-.54-.35-.27-1.5l1.08-4.55a.85.85,0,0,1,.85-.73c.5,0,.77.31.62.92l-.39,1.81c-.12.35-.19.58-.73.58-.15,0-.46,0-.54.31l-.08.31Z"/><path class="cls-1" d="M16.62,4.82H19c1.12,0,2.31.58,1.93,2.27l-1.46,6.24a.74.74,0,0,1-.81.5H16.5c-.19,0-.65,0-.54-.5l1.46-6.4a.69.69,0,0,0-.66-1c-.89,0-1,.23-1.16.73l-1.54,6.63c-.12.42-.42.5-.85.5H11c-.62,0-.5-.35-.46-.65L13.5.43c.15-.5.54-.42.81-.42h2.35c.46,0,.46.35.39.62l-.89,3.74c-.08.39,0,.46.46.46Z"/><path class="cls-1" d="M80.39,4.82c1.08,0,2.35.54,1.93,2.23L81,12.72a1.31,1.31,0,0,1-1.23,1.12H74.11c-1.16,0-2.31-.54-1.93-2.23l1.35-5.7a1.27,1.27,0,0,1,1.23-1.08Zm-4.51,7a.68.68,0,0,0,.66.92,1,1,0,0,0,1.08-.85l1.16-5A.67.67,0,0,0,78.08,6a.93.93,0,0,0-1,.77l-1.16,5Z"/><path class="cls-1" d="M30.8,13.84c-.27,0-.69,0-.58-.54l1.89-8.09a.54.54,0,0,1,.5-.39h5.86c.27,0,.15.27.12.39l-.08.46c-.08.31-.31.27-.46.27-1.12,0-2.5-.31-3,2l-1.27,5.43c-.08.27-.15.5-.69.5Z"/><path class="cls-1" d="M82.55,13.84c-.27,0-.69,0-.58-.54l1.89-8.09a.51.51,0,0,1,.5-.39h5.82c.27,0,.19.27.15.39l-.12.46c-.08.31-.31.27-.42.27-1.16,0-2.5-.31-3,2l-1.27,5.43c-.08.27-.15.5-.69.5Z"/></g></g></svg>