<svg xmlns="http://www.w3.org/2000/svg" viewBox="0 0 109.16 60.37"><defs><style>.cls-1{fill:#263746;}</style></defs><title>Asset 8</title><g id="Layer_2" data-name="Layer 2"><g id="Layer_1-2" data-name="Layer 1"><path class="cls-1" d="M54.8,27.72l-.35-.43a18.6,18.6,0,0,0-5-4.25,18.1,18.1,0,0,0-6-2.24l-.53-.09L43,20.2A18.24,18.24,0,0,0,43,7.44l-.2-.52.55-.09a18.06,18.06,0,0,0,6.15-2.19,18.12,18.12,0,0,0,5-4.22L54.81,0l.35.43a18.1,18.1,0,0,0,5,4.22,18.07,18.07,0,0,0,6.16,2.22l.55.09-.2.52a18.2,18.2,0,0,0,0,12.87l.19.52-.55.09a18.09,18.09,0,0,0-6.16,2.15,17.65,17.65,0,0,0-4.93,4.2ZM44.06,20a19,19,0,0,1,5.82,2.25,19.8,19.8,0,0,1,4.92,4,18.34,18.34,0,0,1,4.83-4,18.94,18.94,0,0,1,5.93-2.16,19.12,19.12,0,0,1,0-12.49,19,19,0,0,1-5.93-2.23,19,19,0,0,1-4.86-4,19,19,0,0,1-4.89,4A19,19,0,0,1,44,7.63,19.16,19.16,0,0,1,44.06,20Z"/><path class="cls-1" d="M54.34,12.05h.9V9.89l5.2.15v-.9l-5.2.12V7.09a1.74,1.74,0,1,0-.9,0V9.26l-5.07-.17V10l5.07-.1ZM54,5.41a.83.83,0,1,1,.83.83A.83.83,0,0,1,54,5.41Z"/><path class="cls-1" d="M61.69,16.22c-.13,2.07-2.68,4.43-5.52,4.43-.71,0-.92-.59-1-1.06V17a2.33,2.33,0,0,0,1.45-.46c0-.11,0-.61,0-.72-.92.89-1.84,1.14-2.49.45a3,3,0,0,1-.57-1.86c0-.93.34-2.06,1.39-2.06a1.58,1.58,0,0,1,1.14.48c.28.28.49.53.49.53s0,0,0-.06c0-.19,0-1.27,0-1.27h-.21s-.07.16-.07.16c0,.24-.78-.11-1.38-.11a2.29,2.29,0,0,0-1.71.68,2.48,2.48,0,0,0-.67,1.73,2.58,2.58,0,0,0,.66,1.83,2.29,2.29,0,0,0,1,.61v2.52h0c0,.48-.19,1.17-1,1.17-2.84,0-5.39-2.36-5.52-4.43l-1.46-.88c1.27,5.84,8.17,6.47,8.38,7.71h0c.21-1.24,7.11-1.87,8.38-7.71Z"/><path class="cls-1" d="M47.69,12.4h.42c.2,0,.2,0,.28.21s1.51,3.56,1.74,4.11c0,.08.07.15.14.15a.15.15,0,0,0,.13-.08c.07-.14,1.48-3.74,1.7-4.08a.72.72,0,0,1,.59-.3h.16s.05,0,.05-.05v-.16s0,0-.05,0H51.18s-.05,0-.05.05v.15a.05.05,0,0,0,0,.06h.18c.37,0,.37.12.33.24s-1.11,2.71-1.11,2.71L49.4,12.41H50s.05,0,.05-.06v-.14s0-.05-.07-.05H47.69s0,0,0,.05v.15S47.66,12.4,47.69,12.4Z"/><path class="cls-1" d="M56.44,12.06s0,0,0,0Z"/><path class="cls-1" d="M57.37,12.19s0,0,0,.05v.17s0,0,0,0H58v4.26h-.54s0,0,0,.05v.17s0,0,.06,0h2c.06,0,.06,0,.06-.07v-.15s0,0-.06,0h-.61V14.88a4.47,4.47,0,0,0,.63,0c1.19,0,1.86-.52,1.86-1.36a1.26,1.26,0,0,0-.53-1,2.68,2.68,0,0,0-1.65-.34Zm3,1.35a1.21,1.21,0,0,1-.17.7,1.18,1.18,0,0,1-.84.46,1.86,1.86,0,0,1-.5-.05V12.46a1,1,0,0,1,.41,0A1.08,1.08,0,0,1,60.37,13.54Z"/><path class="cls-1" d="M0,33.92V33.4H5.62v.52H3.9l3.73,10.9h0l3.57-10.9h-2V33.4h4.22v.52H11.87L7.16,48.33H6.6l-5-14.41Z"/><path class="cls-1" d="M17.79,45.3h.4A4.5,4.5,0,0,1,17.56,47a2.8,2.8,0,0,1-1.11,1,3.31,3.31,0,0,1-4-.9,4.33,4.33,0,0,1-1.1-3,6.56,6.56,0,0,1,.45-2.41,4.46,4.46,0,0,1,1.27-1.83,2.82,2.82,0,0,1,1.87-.69,3,3,0,0,1,1.67.48A3.25,3.25,0,0,1,17.77,41a4.78,4.78,0,0,1,.44,2H13.06v.89a7.62,7.62,0,0,0,.43,2.92,1.74,1.74,0,0,0,1.78,1,2,2,0,0,0,1-.34,3.15,3.15,0,0,0,.94-.92A3.38,3.38,0,0,0,17.79,45.3Zm-4.71-2.92h3.47v-.74a2.83,2.83,0,0,0-.22-1.23,1.43,1.43,0,0,0-.59-.65,1.76,1.76,0,0,0-.86-.2,1.35,1.35,0,0,0-1.11.53,2.5,2.5,0,0,0-.5.86A5.74,5.74,0,0,0,13.07,42.38Z"/><path class="cls-1" d="M27.94,47.51V48H25.4V46.38h0a3.12,3.12,0,0,1-1.12,1.42,2.94,2.94,0,0,1-1.7.52q-2.3,0-2.3-2.12V39.85H19.18v-.5h2.58V46q0,1.62,1.19,1.62a2.08,2.08,0,0,0,1.69-.83,3.11,3.11,0,0,0,.67-2V39.85H23.8v-.5h3v8.16Z"/><path class="cls-1" d="M94.57,47.51V48L92.2,48V46.38h0a3.1,3.1,0,0,1-1,1.42,2.62,2.62,0,0,1-1.59.52,1.89,1.89,0,0,1-2.14-2.12V39.85h-1v-.5l2.4,0V46q0,1.62,1.11,1.62a1.9,1.9,0,0,0,1.57-.83,3.26,3.26,0,0,0,.63-2V39.85h-1v-.5h2.46v8.15Z"/><path class="cls-1" d="M29,39.85h-.87v-.5h4.19v.5h-1.5l2.08,5.91,1.75-5.91H33.56v-.5H36v.5h-.87l-2.51,8.44H32Z"/><path class="cls-1" d="M42.65,45.3H43A4.5,4.5,0,0,1,42.42,47a2.8,2.8,0,0,1-1.11,1,3.31,3.31,0,0,1-4-.9,4.33,4.33,0,0,1-1.1-3,6.57,6.57,0,0,1,.45-2.41,4.46,4.46,0,0,1,1.27-1.83,2.82,2.82,0,0,1,1.87-.69,3,3,0,0,1,1.67.48A3.25,3.25,0,0,1,42.63,41a4.78,4.78,0,0,1,.44,2H37.92v.89a7.62,7.62,0,0,0,.43,2.92,1.74,1.74,0,0,0,1.78,1,2,2,0,0,0,1-.34,3.14,3.14,0,0,0,.94-.92A3.38,3.38,0,0,0,42.65,45.3Zm-4.71-2.92h3.47v-.74a2.82,2.82,0,0,0-.22-1.23,1.42,1.42,0,0,0-.59-.65,1.76,1.76,0,0,0-.86-.2,1.35,1.35,0,0,0-1.11.53,2.49,2.49,0,0,0-.5.86A5.73,5.73,0,0,0,37.94,42.38Z"/><path class="cls-1" d="M63.4,48H58.55v-.5h1.61V34H58.55v-.5h3.24v14H63.4Z"/><path class="cls-1" d="M68.4,48H64.14v-.5h1.4V39.85h-1.4v-.5l3,0v8.18H68.4ZM65.32,35.73a1,1,0,0,1,.31-.74,1,1,0,0,1,.71-.32,1,1,0,0,1,.5.15,1.25,1.25,0,0,1,.41.39.92.92,0,0,1,.16.52,1.18,1.18,0,0,1-.3.82,1,1,0,0,1-.77.33.9.9,0,0,1-.74-.34A1.24,1.24,0,0,1,65.32,35.73Z"/><path class="cls-1" d="M75.7,45.3h.39A5.2,5.2,0,0,1,75,47.42a2.84,2.84,0,0,1-2.06.87,3.24,3.24,0,0,1-2.19-.72,4.13,4.13,0,0,1-1.21-1.73,5.83,5.83,0,0,1,.29-4.74,3.88,3.88,0,0,1,1.53-1.53,3.54,3.54,0,0,1,1.55-.44,4,4,0,0,1,1,.13,3.37,3.37,0,0,1,1,.42,2.17,2.17,0,0,1,.72.74,2,2,0,0,1,.27,1.06,1.46,1.46,0,0,1-.23.81.7.7,0,0,1-.62.35.82.82,0,0,1-.63-.29,1.08,1.08,0,0,1-.26-.75,1.12,1.12,0,0,1,.13-.58c.22-.37.43-1.46-1.11-1.46a1.86,1.86,0,0,0-1.37.5,2.8,2.8,0,0,0-.69,1.46,12.56,12.56,0,0,0-.2,2.44A8.83,8.83,0,0,0,71,45.08a8.55,8.55,0,0,0,.15.87q.09.38.17.62a1.94,1.94,0,0,0,1.83,1.26,2.18,2.18,0,0,0,1.56-.71A4.06,4.06,0,0,0,75.7,45.3Z"/><path class="cls-1" d="M83.93,51.38H85v.5H81.24v-.5h1.23V46.83h0a2.4,2.4,0,0,1-2.35,1.46,2.62,2.62,0,0,1-1.67-.61A4.13,4.13,0,0,1,77.21,46a5.51,5.51,0,0,1-.44-2.19,5.85,5.85,0,0,1,.55-2.68,3.78,3.78,0,0,1,1.33-1.55,2.84,2.84,0,0,1,1.47-.49,2.4,2.4,0,0,1,1.44.48,2.56,2.56,0,0,1,.92,1.32l0-1.6,2.55,0v.5H83.93Zm-1.42-7.86a10.17,10.17,0,0,0-.13-1.87,2.83,2.83,0,0,0-.64-1.24,1.83,1.83,0,0,0-1.49-.76,1.3,1.3,0,0,0-1.21.7,4.09,4.09,0,0,0-.49,1.58,19.15,19.15,0,0,0-.1,2,13.34,13.34,0,0,0,.11,1.88,3,3,0,0,0,.52,1.37,1.4,1.4,0,0,0,1.21.57,2.28,2.28,0,0,0,.86-.21,2.09,2.09,0,0,0,.91-.86,3.58,3.58,0,0,0,.41-1.9c0-.22,0-.42,0-.6S82.51,43.81,82.51,43.52Z"/><path class="cls-1" d="M99.46,39.13a3.1,3.1,0,0,1,1.83.6,4.14,4.14,0,0,1,1.34,1.65,5.36,5.36,0,0,1,.5,2.32,5.6,5.6,0,0,1-.28,1.82A4.71,4.71,0,0,1,102,47a3.64,3.64,0,0,1-1.18,1,3,3,0,0,1-2.8,0,3.73,3.73,0,0,1-1.19-1,4.61,4.61,0,0,1-.8-1.47,5.6,5.6,0,0,1-.29-1.82,5.36,5.36,0,0,1,.5-2.32,4.1,4.1,0,0,1,1.34-1.65A3.12,3.12,0,0,1,99.46,39.13Zm0,.43a1.49,1.49,0,0,0-1.31.6,3.12,3.12,0,0,0-.52,1.44,17.77,17.77,0,0,0-.1,2.09,18,18,0,0,0,.1,2.11,3.16,3.16,0,0,0,.52,1.44,1.72,1.72,0,0,0,2.62,0,3.17,3.17,0,0,0,.52-1.44,18.09,18.09,0,0,0,.1-2.11,17.87,17.87,0,0,0-.1-2.09,3.13,3.13,0,0,0-.52-1.44A1.49,1.49,0,0,0,99.47,39.56Z"/><path class="cls-1" d="M104.09,39.85v-.5h1.22V37.21l1.57-.88v3h1.83v.5h-1.83v6.69a1.58,1.58,0,0,0,.14.72q.14.27.65.27a.9.9,0,0,0,.6-.2,4.09,4.09,0,0,0,.56-.62l.33.26a2.13,2.13,0,0,1-.55.68,2.69,2.69,0,0,1-.81.48,2.53,2.53,0,0,1-.88.16,1.5,1.5,0,0,1-1.33-.48,2.61,2.61,0,0,1-.32-1.43V39.85Z"/><path class="cls-1" d="M55.11,33.63a6.24,6.24,0,0,0,1,.35.6.6,0,0,0,.41-.17,1,1,0,0,0,.27-.53h.49l0,4.92h-.35a12.06,12.06,0,0,0-.79-2.36A2.72,2.72,0,0,0,53.64,34c-1.89,0-3.47,2.22-3.47,6.81,0,3.37,1.26,7.08,3.73,7.08,2,0,3.06-2.07,3.4-4.2h.47c-.57,3.24-1.75,4.67-4.27,4.7a4.51,4.51,0,0,1-4-2.26,9.55,9.55,0,0,1-1.32-5.21,9.72,9.72,0,0,1,1.4-5.37,4.31,4.31,0,0,1,5.51-1.92Z"/><rect class="cls-1" x="17.12" y="57.42" width="2.87" height="2.87"/><rect class="cls-1" x="90.19" y="57.42" width="2.87" height="2.87"/><path class="cls-1" d="M28.29,58.87a.69.69,0,0,0,.22-.55.83.83,0,0,0-.09-.4.69.69,0,0,0-.25-.26,1.16,1.16,0,0,0-.38-.15,2.48,2.48,0,0,0-.5,0H25.52v2.88h.64V59.17H27l.87,1.18h.69l-.85-1.23A1.23,1.23,0,0,0,28.29,58.87Zm-1.14-.13h-1v-.81h1a1.66,1.66,0,0,1,.34,0,.64.64,0,0,1,.22.09.32.32,0,0,1,.11.13.39.39,0,0,1,0,.32.32.32,0,0,1-.11.13.63.63,0,0,1-.22.08A1.6,1.6,0,0,1,27.15,58.75Z"/><path class="cls-1" d="M62.77,58.87a.69.69,0,0,0,.22-.55.83.83,0,0,0-.09-.4.69.69,0,0,0-.25-.26,1.15,1.15,0,0,0-.38-.15,2.48,2.48,0,0,0-.5,0H60v2.88h.64V59.17h.82l.88,1.19H63l-.85-1.23A1.23,1.23,0,0,0,62.77,58.87Zm-1.14-.13h-1v-.81h1A1.66,1.66,0,0,1,62,58a.64.64,0,0,1,.22.09.31.31,0,0,1,.11.13.39.39,0,0,1,0,.32.32.32,0,0,1-.11.13.63.63,0,0,1-.22.08A1.6,1.6,0,0,1,61.63,58.75Z"/><polygon class="cls-1" points="31.73 59.09 33.04 59.09 33.04 58.62 31.73 58.62 31.73 57.94 33.59 57.94 33.59 57.47 31.07 57.47 31.08 60.34 33.65 60.34 33.65 59.84 31.73 59.84 31.73 59.09"/><polygon class="cls-1" points="82.44 59.84 82.44 59.09 83.74 59.09 83.74 58.62 82.44 58.62 82.44 57.94 84.29 57.94 84.29 57.47 81.78 57.47 81.78 60.34 84.35 60.34 84.35 59.84 82.44 59.84"/><polygon class="cls-1" points="42.7 57.47 41.73 59.22 40.71 57.47 40.08 57.47 40.08 60.34 40.63 60.34 40.63 58.33 40.64 58.33 41.7 60.34 41.72 60.34 42.8 58.33 42.81 58.33 42.81 60.34 43.36 60.34 43.35 57.48 42.7 57.47"/><path class="cls-1" d="M48.59,58.79a1.27,1.27,0,0,0-.37-.13l-.43-.06-.43,0-.37,0a.75.75,0,0,1-.26-.1.22.22,0,0,1-.1-.2.2.2,0,0,1,.07-.16.54.54,0,0,1,.18-.1l.24-.06.26,0,.33,0L48,58a2,2,0,0,1,.55.3l.27-.46a2.74,2.74,0,0,0-.57-.28l-.39-.09a2.78,2.78,0,0,0-.53,0,2.17,2.17,0,0,0-.62.08,1.44,1.44,0,0,0-.44.21.82.82,0,0,0-.25.29.73.73,0,0,0-.08.33.75.75,0,0,0,.1.41.73.73,0,0,0,.26.25,1.22,1.22,0,0,0,.37.13l.43.05.43,0,.37,0a.77.77,0,0,1,.26.09.2.2,0,0,1,.1.19.24.24,0,0,1-.11.2.87.87,0,0,1-.26.12,1.57,1.57,0,0,1-.3.06h-.25l-.3,0-.32-.08-.27-.11-.27-.18L46,60s.39.21.49.25a2.07,2.07,0,0,0,.37.09,3.45,3.45,0,0,0,.55,0,3.84,3.84,0,0,0,.51,0,1.81,1.81,0,0,0,.51-.14,1.11,1.11,0,0,0,.39-.28.68.68,0,0,0,.16-.47.72.72,0,0,0-.1-.4A.73.73,0,0,0,48.59,58.79Z"/><polygon class="cls-1" points="54.8 60.34 55.42 60.34 55.42 59.09 56.79 59.09 56.79 58.62 55.42 58.62 55.42 57.94 57.44 57.94 57.44 57.47 54.8 57.47 54.8 60.34"/><path class="cls-1" d="M66.32,57.47,65,60.34h.61l.28-.71h1.35l.34.71h.74l-1.47-2.88ZM66,59.23,66.54,58l.53,1.24Z"/><polygon class="cls-1" points="73.29 57.47 73.29 59.4 71.39 57.47 70.69 57.47 70.72 60.34 71.32 60.34 71.32 58.33 73.23 60.34 73.91 60.34 73.89 57.47 73.29 57.47"/><path class="cls-1" d="M78.71,59.73a2.36,2.36,0,0,1-.37.1,1.9,1.9,0,0,1-.38,0,1.62,1.62,0,0,1-.46-.07,1.17,1.17,0,0,1-.38-.19.94.94,0,0,1-.26-.31.95.95,0,0,1,0-.84.94.94,0,0,1,.26-.31A1.17,1.17,0,0,1,77.5,58a1.62,1.62,0,0,1,.46-.07,1.64,1.64,0,0,1,.31,0l.32.08a1.22,1.22,0,0,1,.25.11l.34-.47-.28-.09-.41-.09a2.94,2.94,0,0,0-.53,0,2.54,2.54,0,0,0-.69.09,1.82,1.82,0,0,0-.59.28,1.38,1.38,0,0,0-.4.46,1.44,1.44,0,0,0,0,1.28,1.35,1.35,0,0,0,.4.46,1.76,1.76,0,0,0,.59.27,2.72,2.72,0,0,0,.69.09,2.27,2.27,0,0,0,.53-.06,3,3,0,0,0,.45-.14l.33-.15L79,59.59A1.26,1.26,0,0,1,78.71,59.73Z"/><rect class="cls-1" x="36.37" y="57.47" width="0.66" height="2.86"/></g></g></svg>